<?xml version="1.0" encoding="UTF-8"?>
<svg id="_레이어_1" xmlns="http://www.w3.org/2000/svg" version="1.1" xmlns:xlink="http://www.w3.org/1999/xlink" viewBox="0 0 2771 1448.1">
  <!-- Generator: Adobe Illustrator 29.3.1, SVG Export Plug-In . SVG Version: 2.1.0 Build 151)  -->
  <defs>
    <style>
      .st0 {
        fill: url(#_무제_그라디언트);
      }

      .st1 {
        fill: url(#_무제_그라디언트_5);
      }

      .st2 {
        fill: url(#_무제_그라디언트_4);
      }

      .st2, .st3, .st4, .st5 {
        fill-rule: evenodd;
      }

      .st3 {
        fill: url(#_무제_그라디언트_2);
      }

      .st4 {
        fill: url(#_무제_그라디언트_8);
      }

      .st5 {
        fill: url(#_무제_그라디언트_6);
      }

      .st6 {
        fill: url(#_무제_그라디언트_3);
      }

      .st7 {
        fill: url(#_무제_그라디언트_7);
      }

      .st8 {
        fill: #fcfcf7;
      }
    </style>
    <linearGradient id="_무제_그라디언트" data-name="무제 그라디언트" x1="2291.2" y1="-1742.9" x2="2291.2" y2="-1037.8" gradientTransform="translate(0 2246)" gradientUnits="userSpaceOnUse">
      <stop offset="0" stop-color="#fcfcf7"/>
      <stop offset="1" stop-color="#f3f3e9"/>
    </linearGradient>
    <linearGradient id="_무제_그라디언트_2" data-name="무제 그라디언트 2" x1="2236.8" y1="-1566.4" x2="2361.2" y2="-1122.3" gradientTransform="translate(0 2246)" gradientUnits="userSpaceOnUse">
      <stop offset=".5" stop-color="#fff"/>
      <stop offset="1" stop-color="#fff" stop-opacity="0"/>
    </linearGradient>
    <linearGradient id="_무제_그라디언트_3" data-name="무제 그라디언트 3" x1="1703.3" y1="-2105.5" x2="1703.3" y2="-1316.8" gradientTransform="translate(0 2246)" gradientUnits="userSpaceOnUse">
      <stop offset="0" stop-color="#fcfcf7"/>
      <stop offset="1" stop-color="#f3f3e9"/>
    </linearGradient>
    <linearGradient id="_무제_그라디언트_4" data-name="무제 그라디언트 4" x1="1641.3" y1="-2064.4" x2="1749" y2="-1402.9" gradientTransform="translate(0 2246)" gradientUnits="userSpaceOnUse">
      <stop offset=".6" stop-color="#fff"/>
      <stop offset="1" stop-color="#fff" stop-opacity="0"/>
    </linearGradient>
    <linearGradient id="_무제_그라디언트_5" data-name="무제 그라디언트 5" x1="1460.2" y1="-1632.4" x2="960.6" y2="-988.8" gradientTransform="translate(0 2246)" gradientUnits="userSpaceOnUse">
      <stop offset="0" stop-color="#fcfcf7"/>
      <stop offset="1" stop-color="#f3f3e9"/>
    </linearGradient>
    <linearGradient id="_무제_그라디언트_6" data-name="무제 그라디언트 6" x1="1252.1" y1="-1541.4" x2="1171.1" y2="-1039" gradientTransform="translate(0 2246)" gradientUnits="userSpaceOnUse">
      <stop offset=".5" stop-color="#fff"/>
      <stop offset="1" stop-color="#fff" stop-opacity="0"/>
    </linearGradient>
    <linearGradient id="_무제_그라디언트_7" data-name="무제 그라디언트 7" x1="642.5" y1="-1649.2" x2="445.8" y2="-1180.3" gradientTransform="translate(0 2246)" gradientUnits="userSpaceOnUse">
      <stop offset="0" stop-color="#fcfcf7"/>
      <stop offset="1" stop-color="#f3f3e9"/>
    </linearGradient>
    <linearGradient id="_무제_그라디언트_8" data-name="무제 그라디언트 8" x1="570.6" y1="-1440.3" x2="588.6" y2="-1109.9" gradientTransform="translate(0 2246)" gradientUnits="userSpaceOnUse">
      <stop offset=".5" stop-color="#fff"/>
      <stop offset="1" stop-color="#fff" stop-opacity="0"/>
    </linearGradient>
  </defs>
  <path class="st0" d="M2497.6,567.2c-161.3-114-384.5-75.6-498.4,85.7-114,161.3-75.7,384.5,85.7,498.4,161.3,114,384.5,75.7,498.4-85.7,114-161.3,75.6-384.5-85.7-498.4h0Z"/>
  <path class="st3" d="M2090.5,1173.1c-1.5,2.8-.5,6.3,2.3,7.8,2.8,1.5,6.3.5,7.8-2.3,23.6-43.5,40.5-97.5,37.2-157.1-2.2-40.2-13.6-82.8-38.2-126.5,27.2-11.7,56.4-23.5,87.2-35,.2,1.2.4,2.5.6,3.8,16.1,101,74.4,167.2,143.7,209.2,69.1,41.9,149.3,59.8,210,64.3,3.2.3,5.9-2.2,6.1-5.3.3-3.2-2.2-5.9-5.3-6.1-59.5-4.4-137.8-22-204.9-62.7-67-40.6-122.8-104.2-138.3-201.2-.3-2-.7-4-.9-6.1,131.6-47.9,290-87.9,441.9-87.1,3.2,0,5.7-2.5,5.8-5.7,0-3.2-2.5-5.7-5.7-5.8-152.6-.8-311.2,39-443.3,86.8-15.1-158.8,113.8-268.6,226.5-326.6,2.8-1.4,4-4.9,2.5-7.8-1.4-2.8-4.9-3.9-7.7-2.5-114.2,58.6-250.2,172.9-232.4,340.8-32.4,11.9-63,24.3-91.5,36.7-10.8-17.9-23.8-35.8-39.3-53.9-34.8-40.4-73.4-72.1-113.4-96.7-2.7-1.6-6.3-.8-7.9,1.9s-.8,6.3,1.9,7.9c39.1,24,76.7,54.9,110.8,94.5,14.7,17.1,27.1,34.1,37.4,51-62.1,27.3-113.2,54-147.8,74.7-2.7,1.6-3.7,5.2-2,7.9s5.2,3.6,7.8,2c34.6-20.6,85.7-47.3,147.8-74.6,24.1,42.5,35.1,83.8,37.2,122.5,3.2,57-13,108.8-35.8,150.9h0Z"/>
  <path class="st8" d="M1934.2,212.3c-180.4-127.5-430.1-84.6-557.6,95.8-127.5,180.4-84.6,430.1,95.8,557.6,180.4,127.5,430.1,84.6,557.6-95.8s84.6-430.1-95.8-557.6h0Z"/>
  <path class="st6" d="M1934.2,212.3c-180.4-127.5-430.1-84.6-557.6,95.8-127.5,180.4-84.6,430.1,95.8,557.6,180.4,127.5,430.1,84.6,557.6-95.8s84.6-430.1-95.8-557.6h0Z"/>
  <path class="st2" d="M1481.4,898.8c-3.1-1.7-4.3-5.6-2.6-8.7,25.6-47.1,43.6-105,40.1-168.8-2.4-43.2-14.7-89.4-41.7-137.1-69.5,30.5-126.7,60.4-165.4,83.4-3.1,1.8-7,.8-8.8-2.2s-.8-7,2.2-8.8c38.7-23.1,95.8-53,165.4-83.5-11.5-18.9-25.4-37.9-41.9-57.1-38-44.2-80.2-78.8-123.9-105.7-3-1.8-4-5.8-2.1-8.8s5.8-4,8.8-2.1c44.8,27.5,87.9,62.9,126.9,108.2,17.4,20.2,32,40.3,44,60.3,31.9-13.8,66.2-27.7,102.4-41-20-187.9,132.2-315.6,260-381.2,3.1-1.6,7-.4,8.6,2.8,1.6,3.1.4,7-2.7,8.7-126.1,64.8-270.3,187.5-253.4,365.2,147.8-53.5,325.2-98.1,495.9-97.1,3.5,0,6.4,2.9,6.4,6.5s-2.9,6.4-6.5,6.4c-170-.9-347.1,43.9-494.3,97.5.3,2.2.7,4.5,1,6.8,17.4,108.5,79.8,179.7,154.7,225.1,75.1,45.5,162.7,65.1,229.2,70.1,3.5.3,6.2,3.3,5.9,6.9-.3,3.5-3.3,6.2-6.9,5.9-67.9-5.1-157.6-25-234.9-72-77.5-47-142.7-121.1-160.7-234.1-.3-1.4-.5-2.9-.7-4.2-34.4,12.8-67.1,26-97.5,39.1,27.4,48.8,40.2,96.5,42.7,141.5,3.7,66.7-15.1,127-41.6,175.7-1.7,3.1-5.6,4.3-8.7,2.6v-.2Z"/>
  <path class="st8" d="M1587,755.4c-90.9-201.4-327.9-290.9-529.2-200.1-201.4,90.9-290.9,327.9-200.1,529.2,90.9,201.4,327.9,290.9,529.2,200.1,201.4-90.9,290.9-327.9,200.1-529.2Z"/>
  <path class="st1" d="M1587,755.4c-90.9-201.4-327.9-290.9-529.2-200.1-201.4,90.9-290.9,327.9-200.1,529.2,90.9,201.4,327.9,290.9,529.2,200.1,201.4-90.9,290.9-327.9,200.1-529.2Z"/>
  <path class="st5" d="M848.7,1117.6c-1.8-3.1-.8-7,2.2-8.8,45.9-27.7,90.9-68.4,120.2-125.2,19.8-38.5,32.6-84.6,33.5-139.2-75.4-8.9-139.8-12.1-184.8-11.9-3.5,0-6.5-2.9-6.5-6.4s2.9-6.5,6.4-6.5c45.1-.3,109.5,2.9,184.9,11.8-.4-22.1-2.7-45.5-7.2-70.4-10.4-57.4-29.2-108.5-53.2-153.9-1.7-3.1-.5-7,2.7-8.7,3.1-1.7,7-.5,8.7,2.7,24.7,46.4,43.9,98.9,54.5,157.6,4.8,26.2,7.1,50.9,7.4,74.2,34.4,4.3,71.1,9.7,109.1,16.6,78.1-172.1,274-205,417.3-196.9,3.5.2,6.3,3.3,6.1,6.8s-3.2,6.3-6.8,6.1c-141.6-8.1-328.1,24.7-403.5,186.4,154.5,28.8,330.1,80.3,476.7,167.6,3.1,1.8,4,5.7,2.2,8.8s-5.7,4-8.8,2.2c-146-87-321.4-138.1-475.5-166.6-.8,2.1-1.7,4.2-2.5,6.3-40.1,102.3-22.3,195.3,19.2,272.4,41.7,77.3,107.2,138.6,162,176.6,2.9,2,3.7,6,1.6,8.9s-6,3.7-8.9,1.6c-56-38.8-123.2-101.5-166-181.1-43-79.8-61.6-176.7-19.9-283.2.5-1.4,1-2.7,1.6-4-36.1-6.5-71-11.6-103.9-15.7-1.1,55.9-14.3,103.5-35,143.6-30.6,59.4-77.4,101.8-124.9,130.3-3.1,1.8-7,.8-8.8-2.2h-.1Z"/>
  <path class="st8" d="M802.2,439.8c-180.4-127.5-430.1-84.6-557.6,95.8-127.5,180.4-84.6,430.1,95.8,557.6,180.4,127.5,430.1,84.6,557.6-95.8,127.5-180.4,84.6-430.1-95.8-557.6h0Z"/>
  <path class="st7" d="M802.2,439.8c-180.4-127.5-430.1-84.6-557.6,95.8-127.5,180.4-84.6,430.1,95.8,557.6,180.4,127.5,430.1,84.6,557.6-95.8,127.5-180.4,84.6-430.1-95.8-557.6h0Z"/>
  <path class="st4" d="M349.5,1126.2c-3.1-1.7-4.3-5.6-2.6-8.7,25.6-47.1,43.6-105,40.1-168.8-2.4-43.2-14.7-89.4-41.7-137-69.5,30.5-126.7,60.4-165.4,83.4-3.1,1.8-7,.8-8.8-2.2-1.8-3.1-.8-7,2.2-8.8,38.7-23.1,95.8-53,165.4-83.5-11.5-18.9-25.4-37.9-41.9-57.1-38-44.2-80.2-78.8-123.9-105.7-3-1.8-4-5.8-2.1-8.8,1.8-3,5.8-4,8.8-2.1,44.8,27.5,87.9,62.9,126.9,108.2,17.4,20.2,32,40.3,44,60.3,31.9-13.8,66.2-27.7,102.4-41-20-187.9,132.2-315.6,259.9-381.2,3.1-1.6,7-.4,8.7,2.8,1.6,3.1.4,7-2.8,8.7-126.1,64.8-270.3,187.5-253.4,365.2,147.8-53.5,325.2-98.1,495.9-97.1,3.5,0,6.4,2.9,6.4,6.5s-2.9,6.4-6.5,6.4c-169.9-.9-347,43.9-494.3,97.5.3,2.2.7,4.5,1,6.8,17.4,108.5,79.8,179.7,154.7,225.1,75.1,45.5,162.6,65.1,229.2,70.1,3.5.3,6.2,3.3,5.9,6.9-.3,3.5-3.3,6.2-6.9,5.9-67.9-5.1-157.6-25-234.9-72-77.5-47-142.7-121.1-160.7-234.1-.2-1.4-.5-2.9-.7-4.2-34.4,12.8-67.1,26-97.5,39.1,27.4,48.8,40.2,96.5,42.7,141.5,3.7,66.7-15.1,127-41.6,175.7-1.7,3.1-5.6,4.3-8.7,2.6l.2-.3Z"/>
</svg>