<?xml version="1.0" encoding="UTF-8"?>
<svg id="_레이어_1" xmlns="http://www.w3.org/2000/svg" version="1.1" viewBox="0 0 55 37">
  <!-- Generator: Adobe Illustrator 29.3.1, SVG Export Plug-In . SVG Version: 2.1.0 Build 151)  -->
  <defs>
    <style>
      .st0 {
        font-family: Bayon-Regular, Bayon;
        font-size: 19.1px;
      }

      .st0, .st1 {
        isolation: isolate;
      }

      .st0, .st2 {
        fill: #e33529;
      }
    </style>
  </defs>
  <g>
    <path class="st2" d="M4.2,17.8c-.7,0-1.3-.2-1.9-.5-.6-.3-1-.8-1.3-1.4s-.5-1.2-.5-2v-6c0-.7.2-1.4.5-1.9.3-.6.8-1,1.3-1.4s1.2-.5,1.9-.5,1.3.2,1.9.5,1,.8,1.3,1.4.5,1.2.5,1.9v.9h-2.1v-.9c0-.4,0-.8-.4-1.1-.3-.3-.6-.5-1-.5s-.8.2-1,.5-.4.7-.4,1.1v6c0,.5,0,.8.4,1.1.3.3.6.4,1,.4s.8-.2,1-.5.4-.7.4-1.1v-.9h2.2v.9c0,.7-.2,1.4-.5,2s-.8,1.1-1.4,1.4-1.2.5-1.9.5h0Z"/>
    <path class="st2" d="M12.3,17.8c-.7,0-1.3-.2-1.9-.5-.6-.3-1-.8-1.4-1.4-.3-.6-.5-1.2-.5-1.9v-6.1c0-.7.2-1.3.5-1.9.3-.6.8-1,1.4-1.4.6-.3,1.2-.5,1.9-.5s1.3.2,1.9.5c.6.3,1,.8,1.3,1.4s.5,1.2.5,1.9v6.1c0,.7-.1,1.3-.5,1.9-.3.6-.8,1.1-1.4,1.4-.6.3-1.2.5-1.9.5h0ZM12.3,15.5c.4,0,.7-.2,1-.5s.4-.7.4-1.1v-6.1c0-.4-.2-.8-.4-1.1s-.6-.4-1-.4-.7,0-1,.4-.4.6-.4,1.1v6.1c0,.4.1.8.4,1.1.3.3.6.5,1,.5Z"/>
    <path class="st2" d="M19.1,17.6h-2.2V4.4h4c.7,0,1.3.2,1.9.5s1,.8,1.4,1.4c.3.6.5,1.2.5,1.9s0,.9-.2,1.3c-.1.4-.3.7-.5,1s-.4.5-.5.6c.7.8,1,1.7,1,2.7v3.9h-2.2v-4c0-.5-.2-.9-.5-1.2s-.7-.5-1.2-.5h-1.3v5.6h-.2ZM20.9,6.6h-1.6v3h1.6c.4,0,.7-.1,1-.4.3-.3.5-.7.5-1.1s-.1-.8-.4-1.1-.7-.4-1.1-.4Z"/>
    <path class="st2" d="M27.8,17.6h-2.2V4.4h2.1v13.1h.1Z"/>
    <path class="st2" d="M3.9,32.7c-.7,0-1.3-.2-1.9-.5-.6-.3-1-.8-1.4-1.4s-.5-1.2-.5-1.9v-.9H.1c0-.1,2.1-.1,2.1-.1h0v1c0,.4,0,.8.4,1.1.3.3.6.5,1,.5s.7-.2,1-.5.4-.7.4-1.1-.3-.9-.9-1.2l-.4-.2c-.2,0-.3-.2-.6-.3s-.4-.2-.6-.3c-.2-.1-.4-.2-.6-.3-.7-.4-1.2-.9-1.6-1.5C0,24.5-.2,23.8-.2,23S0,21.7.3,21.1c.3-.6.8-1,1.4-1.3s1.2-.5,1.8-.5,1.3.2,1.9.5,1,.8,1.4,1.4c.3.6.5,1.2.5,1.9v1.6h-2.1v-1.6c0-.4-.2-.8-.4-1.1-.3-.3-.6-.4-1-.4s-.7.1-1,.4-.4.7-.4,1.1,0,.8.3,1,.5.5,1,.8c0,0,.2,0,.3.2.2,0,.4.2.6.3.2.1.4.2.6.3.2,0,.3.2.3.2.6.4,1.1.8,1.5,1.3s.6,1.2.6,1.9-.2,1.4-.5,2-.8,1-1.4,1.4-1.2.5-1.9.5v-.3Z"/>
    <path class="st2" d="M8,32.4l2.4-13.1h2.8l2.3,13.1h-2.2l-.2-1.4h-2.6l-.2,1.4h-2.3ZM11.9,23.6v-.7c-.1,0-.2.7-.2.7l-.9,5.4h1.8l-.8-5.4h0Z"/>
    <path class="st2" d="M22.4,32.5h-6.2v-13.1h2.2v10.9h3.9v2.2h0Z"/>
    <path class="st2" d="M25.4,32.5h-2.2v-13.1h4c.7,0,1.3.2,1.9.5s1,.8,1.4,1.4.5,1.2.5,1.9,0,.9-.2,1.3c-.1.4-.3.7-.5,1s-.4.5-.5.6c.7.8,1,1.7,1,2.7v3.9h-2.2v-4c0-.5-.2-.9-.5-1.2-.3-.3-.7-.5-1.2-.5h-1.3v5.6h-.2ZM27.1,21.5h-1.6v3h1.6c.4,0,.7-.1,1.1-.4.3-.3.5-.7.5-1.1s-.1-.8-.4-1.1c-.3-.3-.7-.4-1.1-.4h-.1Z"/>
    <path class="st2" d="M31.2,32.4l2.4-13.1h2.8l2.3,13.1h-2.2l-.2-1.4h-2.6l-.2,1.4h-2.3ZM35.1,23.6v-.7c0,0-.2.7-.2.7l-.9,5.4h1.8l-.8-5.4h.1Z"/>
    <path class="st2" d="M41.5,32.5h-1.9s0,0,0,0v-13s0-.1,0-.1h1.7l3.2,7.5v-7.4h0c0-.1,1.9-.1,1.9-.1,0,0,0,0,0,.1v13h0c0,0-1.7,0-1.7,0l-3.3-7v6.9c0,0,0,0,0,0Z"/>
    <path class="st2" d="M51.1,32.7c-.7,0-1.3-.2-1.9-.5-.6-.3-1-.8-1.3-1.4s-.5-1.2-.5-1.9v-6.1c0-.7.2-1.3.5-1.9s.8-1,1.4-1.4c.6-.3,1.2-.5,1.9-.5s1.3.2,1.9.5c.6.3,1,.8,1.3,1.4s.5,1.2.5,1.9v.9h-2.1v-.7c0-.5,0-.9-.4-1.2-.3-.3-.6-.5-1-.5s-.7.2-1,.5-.4.7-.4,1.1v6.1c0,.4,0,.8.4,1.1.3.3.6.5,1,.5s.8-.1,1-.4c.3-.3.4-.7.4-1.1v-.9h-1.4v-2.1h3.7v3.2c0,.7-.2,1.4-.5,1.9-.3.6-.8,1-1.4,1.4-.6.3-1.2.5-1.9.5l-.2-.4Z"/>
  </g>
  <g class="st1">
    <text class="st0" transform="translate(0 61.3)"><tspan x="0" y="0">Cori</tspan></text>
    <text class="st0" transform="translate(0 76.2)"><tspan x="0" y="0">S</tspan></text>
    <text class="st0" transform="translate(8 76.2)"><tspan x="0" y="0">al</tspan></text>
    <text class="st0" transform="translate(22.5 76.2)"><tspan x="0" y="0">r</tspan></text>
    <text class="st0" transform="translate(31.5 76.2)"><tspan x="0" y="0">a</tspan></text>
    <text class="st0" transform="translate(39.1 76.2)"><tspan x="0" y="0">ng</tspan></text>
  </g>
</svg>