<svg width="76" height="37" viewBox="0 0 76 37" fill="none" xmlns="http://www.w3.org/2000/svg">
<path fill-rule="evenodd" clip-rule="evenodd" d="M50.735 1.55953C50.8182 1.23291 50.9906 0.936163 51.2326 0.702731C51.2729 0.743295 51.3017 0.7791 51.3207 0.814457C51.3906 0.730268 51.4634 0.657147 51.5357 0.596162C51.5332 0.594474 51.532 0.591527 51.5327 0.587014C51.5362 0.551259 51.551 0.51759 51.5751 0.491C51.5817 0.478008 51.5927 0.46784 51.6061 0.462354C51.6196 0.456867 51.6345 0.456429 51.6483 0.46112C51.6493 0.480191 51.6461 0.499213 51.6391 0.516877C51.8235 0.38966 51.9947 0.347383 52.0966 0.408637L52.1046 0.415233C52.1171 0.362796 52.1773 0.341804 52.2654 0.370055C52.3231 0.385875 52.377 0.413205 52.424 0.450418C52.5788 0.588405 52.745 0.712961 52.9208 0.822751L53.4485 1.15879C53.7075 1.32731 53.9568 1.50744 54.206 1.68741C54.4503 1.86388 54.6944 2.04025 54.9471 2.2053C55.1325 2.32801 55.3163 2.45286 55.5002 2.57773C55.9783 2.90232 56.4564 3.22699 56.9614 3.51433C57.192 3.64561 57.4205 3.78567 57.6497 3.92616C57.8591 4.05452 58.0691 4.18322 58.2817 4.30591C58.6267 4.52341 58.9841 4.72036 59.352 4.89573C59.4988 4.9579 59.6295 5.04872 59.7603 5.1396C59.8728 5.21775 59.9853 5.29595 60.1082 5.35601C60.5799 5.59275 61.0355 5.85903 61.4915 6.12548C61.862 6.34202 62.2329 6.55873 62.6126 6.75976C62.8953 6.90776 63.1733 7.06433 63.4501 7.22317C63.8206 7.25815 64.1882 7.3211 64.5497 7.41157C65.5612 7.68905 66.5055 8.17201 67.3243 8.83065C67.6914 9.11324 68.0374 9.42244 68.3597 9.75578C68.4519 9.85465 68.5463 9.96284 68.6375 10.0673C68.7002 10.1391 68.7616 10.2096 68.8195 10.2736C68.9501 10.4305 69.0903 10.5792 69.2392 10.7188C69.5276 11.0019 69.8501 11.2478 70.1991 11.4506C70.5517 11.6591 70.9227 11.8345 71.3073 11.9745C71.4639 12.0331 71.6229 12.0759 71.7872 12.1202C71.8759 12.1441 71.9662 12.1684 72.0585 12.1958C72.2963 12.2571 72.5247 12.3502 72.7377 12.4729C73.044 12.6208 73.3624 12.7418 73.6894 12.8347C73.8843 12.876 74.0646 12.9687 74.212 13.1034C73.8969 13.0449 73.5866 12.9628 73.2836 12.8578C72.7269 12.6812 72.1804 12.5216 71.633 12.3849C71.5607 12.3731 71.4879 12.3655 71.4148 12.3621C71.636 12.4458 71.8489 12.5105 72.0536 12.5726C72.3083 12.65 72.5501 12.7234 72.7792 12.8249C72.7595 12.8734 72.7372 12.9119 72.7084 12.9415C72.8595 12.9851 73.0095 13.0293 73.1582 13.0755C73.1587 13.0727 73.1608 13.0701 73.1652 13.0679C73.2138 13.0556 73.2644 13.0537 73.3138 13.0623C73.3339 13.0626 73.3536 13.0674 73.3717 13.0763C73.3897 13.0852 73.4056 13.0981 73.4181 13.1139C73.3963 13.1253 73.3727 13.1328 73.3485 13.136C73.5996 13.218 73.8463 13.3077 74.0867 13.4124L74.0965 13.4166L74.1026 13.4194C74.0843 13.3531 74.1481 13.3233 74.3001 13.3651C74.4015 13.3905 74.4954 13.4398 74.574 13.5091C74.6448 13.5761 74.7079 13.651 74.7621 13.7322C74.7873 13.7758 74.8094 13.821 74.8284 13.8677C74.8521 13.9123 74.8681 13.9606 74.8757 14.0106C74.9156 14.2014 74.9053 14.3993 74.8457 14.5849C74.7209 14.9224 74.53 15.2314 74.2843 15.4934C73.9558 15.8698 73.5637 16.185 73.1263 16.4243C72.6817 16.6331 72.2163 16.7935 71.738 16.9029C71.1254 17.0507 70.5043 17.1602 69.8782 17.2307C69.6104 17.265 69.3421 17.2959 69.0732 17.3268C68.7167 17.3679 68.3591 17.4091 68.0004 17.4584C67.5284 17.5138 67.0501 17.5509 66.5713 17.588C66.2482 17.6131 65.9248 17.6382 65.6031 17.6689C65.4901 17.6813 65.3749 17.6904 65.2598 17.6995C65.0556 17.7157 64.8513 17.7319 64.6589 17.7666C64.6414 17.7698 64.624 17.7729 64.6065 17.776C64.5483 17.7864 64.4902 17.7968 64.4331 17.8118L64.2216 17.8975C64.2145 17.9006 64.2073 17.9036 64.2002 17.9065L64.1922 17.9097C64.1669 17.9201 64.142 17.9303 64.118 17.9433L64.0221 18.0056C64.007 18.0157 63.9917 18.0259 63.9763 18.036C63.9286 18.0677 63.8804 18.0996 63.8349 18.1334C63.4796 18.4028 63.1827 18.7421 62.9623 19.1306C62.7239 19.6096 62.5422 20.1149 62.4209 20.6364C62.3612 20.8988 62.3065 21.162 62.2693 21.4278L62.2393 21.6281L62.2142 21.8804C62.197 21.9953 62.1928 22.111 62.1886 22.2272C62.1866 22.2805 62.1847 22.3341 62.1815 22.3877C62.0238 22.3638 61.8574 22.3226 61.691 22.2815C61.6077 22.2609 61.5245 22.2403 61.4423 22.2219C61.2897 22.1988 61.1456 22.1551 61.002 22.1116C60.9487 22.0955 60.8956 22.0794 60.842 22.0644C59.7354 21.7331 58.6729 21.2677 57.6779 20.6785C57.0285 20.3216 56.4016 19.9247 55.8008 19.4901C55.2838 19.0994 54.7748 18.6893 54.2948 18.2555C53.8807 17.8824 53.4887 17.4853 53.1208 17.0661L52.772 16.6573L52.7505 16.631L52.7699 16.6032L52.8929 16.4451L53.0576 16.2294L53.3106 15.8835L53.5493 15.5484C53.64 15.4187 53.7432 15.2909 53.846 15.1656C54.4676 14.3912 55.11 13.6323 55.7515 12.8746C55.9856 12.5981 56.2199 12.3213 56.4527 12.0444C56.8274 11.5969 57.2119 11.158 57.6059 10.728C56.6766 10.9402 55.7365 11.1014 54.7898 11.211L54.4009 11.2571C54.3183 11.2659 54.2369 11.2664 54.1535 11.267C54.1063 11.2674 54.0585 11.2677 54.0094 11.2695L53.2414 11.2966C52.6648 11.2989 52.0884 11.2706 51.5148 11.2117C50.8519 11.1682 50.1977 11.0364 49.5693 10.8197C48.9774 10.6307 48.4237 10.337 47.9345 9.9523C47.6821 9.7392 47.462 9.49017 47.2812 9.21311C47.0989 8.92177 46.9745 8.59767 46.9149 8.25872C46.8653 8.04945 46.8401 7.83508 46.8399 7.61995C46.8407 7.42077 46.8982 7.22597 47.0055 7.05858C47.0692 6.9718 47.118 6.87317 47.1692 6.76967C47.2362 6.63402 47.3075 6.49002 47.4218 6.35337C47.4865 6.27754 47.5616 6.21132 47.6448 6.15667C47.7025 6.12127 47.7666 6.09789 47.8334 6.08792C47.9183 6.077 48.0045 6.09006 48.0824 6.12564C48.0168 6.13045 47.9519 6.14207 47.8888 6.16033C47.8419 6.18396 47.7976 6.20798 47.7554 6.23487C47.695 6.28174 47.64 6.33525 47.5914 6.39442C47.5128 6.48827 47.4446 6.59042 47.3879 6.69907C47.1839 7.06314 47.1022 7.48363 47.1548 7.89813C47.1641 7.9234 47.1748 7.94811 47.187 7.97215C47.1424 7.6384 47.1933 7.29878 47.3336 6.99305C47.38 7.01212 47.4166 7.03129 47.4458 7.05285C47.4777 6.95151 47.516 6.85889 47.5583 6.77703C47.5532 6.7776 47.5487 6.77548 47.5455 6.76948C47.5378 6.73493 47.5388 6.69899 47.5484 6.66493C47.5506 6.65108 47.5574 6.63836 47.5676 6.62878C47.5777 6.6192 47.5908 6.6133 47.6047 6.612C47.6142 6.63047 47.619 6.65104 47.6185 6.67181C47.7404 6.47992 47.8832 6.37203 48.0016 6.38757C48.0089 6.34581 48.0551 6.31387 48.1341 6.30761C48.1931 6.30003 48.2531 6.30389 48.3106 6.31899C48.5056 6.38938 48.7069 6.44046 48.9117 6.47151L49.5274 6.57758C49.8446 6.63378 50.1583 6.7082 50.472 6.78262C50.7497 6.84849 51.0274 6.91436 51.3076 6.96763C51.5317 7.01036 51.7552 7.05591 51.9788 7.10148C52.538 7.21547 53.0974 7.32949 53.6673 7.39936C54.0007 7.44132 54.3401 7.49559 54.6792 7.5498C54.8486 7.57689 55.0179 7.60395 55.1863 7.62947C55.5886 7.69641 55.9943 7.74077 56.4015 7.76234C56.5631 7.76162 56.7204 7.79546 56.8784 7.82946C57.0093 7.85764 57.1407 7.88592 57.2755 7.89474C57.7922 7.92997 58.3054 7.99855 58.8189 8.06716C59.2523 8.12509 59.686 8.18304 60.1221 8.22097L60.1565 8.22404L60.1583 8.22264C59.9158 8.18108 59.6727 8.14071 59.4296 8.10096C58.461 7.93768 57.5023 7.71977 56.558 7.44827L56.1792 7.34222C56.1049 7.32026 56.0335 7.29143 55.9612 7.26224C55.9125 7.24258 55.8633 7.22273 55.8127 7.20475L55.0901 6.92882C54.5569 6.7073 54.0358 6.4574 53.5291 6.18017C52.9314 5.88527 52.3759 5.51084 51.8776 5.06695C51.4023 4.66602 51.0029 4.18215 50.6985 3.63861C50.5451 3.34444 50.4353 3.02929 50.3726 2.70316C50.3136 2.36455 50.3189 2.01777 50.3882 1.68114C50.422 1.46852 50.4813 1.26081 50.5649 1.06256C50.6396 0.877316 50.767 0.718419 50.9313 0.605873C51.1396 0.430886 51.3571 0.267214 51.5828 0.115559C51.6716 0.0692516 51.7666 0.0361986 51.8649 0.0174414C51.9271 0.00122151 51.9916 -0.00374091 52.0556 0.00278658C52.135 0.0246837 52.2076 0.066525 52.2665 0.124379C52.2025 0.10594 52.1364 0.095923 52.0698 0.0945793C52.0202 0.0976616 51.9708 0.103861 51.9219 0.113143C51.8478 0.132762 51.7762 0.16056 51.7083 0.196028C51.5995 0.255546 51.4968 0.325781 51.4018 0.405698C51.0789 0.664637 50.8471 1.02085 50.7403 1.42204C50.7338 1.46756 50.732 1.51364 50.735 1.55953ZM55.6897 6.82975C55.6689 6.82103 55.6481 6.8123 55.6274 6.80358C55.6144 6.80602 55.6019 6.81079 55.5906 6.8177C55.5737 6.82795 55.5765 6.84373 55.5978 6.85464L55.5903 6.85351C55.6283 6.87206 55.665 6.86482 55.6829 6.84705C55.6863 6.84181 55.6887 6.83592 55.6897 6.82975ZM59.6104 7.88338C59.5692 7.87558 59.5277 7.86769 59.486 7.85969C59.4982 7.88774 59.5243 7.90552 59.5886 7.88944C59.5965 7.88748 59.6038 7.88546 59.6104 7.88338ZM64.0112 7.54665L64.0615 7.57556C64.0697 7.5761 64.0796 7.57792 64.0889 7.57963C64.1139 7.5842 64.1347 7.58802 64.1066 7.56468C64.0838 7.55375 64.0591 7.54751 64.0339 7.54633C64.0263 7.54598 64.0187 7.54608 64.0112 7.54665ZM56.4467 7.15482L56.4516 7.15557C56.469 7.1582 56.487 7.16347 56.5052 7.16877C56.5418 7.17945 56.5788 7.19024 56.611 7.17971C56.5603 7.15404 56.5027 7.14532 56.4467 7.15482ZM54.5175 6.34783L54.5112 6.3904C54.5222 6.40502 54.5373 6.41595 54.5546 6.42177C54.5719 6.42759 54.5906 6.42802 54.6081 6.42302C54.628 6.42603 54.6268 6.40024 54.6138 6.38546C54.5868 6.3623 54.5529 6.34904 54.5175 6.34783ZM54.2856 6.26404C54.2838 6.26327 54.2805 6.26124 54.2764 6.25869C54.2593 6.24803 54.2278 6.22839 54.2258 6.25499L54.2856 6.26404ZM53.8637 6.05416C53.8753 6.07896 53.928 6.08438 53.9584 6.06849C53.9719 6.06141 53.9873 6.07294 54.0032 6.08495C54.0231 6.09987 54.0439 6.11554 54.0636 6.09724L53.957 6.06061C53.9398 6.05678 53.9223 6.05413 53.9047 6.05268C53.8945 6.05317 53.882 6.04766 53.8716 6.04306C53.8558 6.03608 53.8447 6.0312 53.8538 6.05265L53.8637 6.05416ZM53.4466 5.82963C53.4294 5.8424 53.4425 5.85718 53.462 5.8627C53.4636 5.86285 53.4652 5.86282 53.4667 5.86261C53.4689 5.86231 53.4711 5.86163 53.4731 5.86059C53.4747 5.85977 53.4762 5.85875 53.4775 5.85755C53.479 5.85618 53.4803 5.85459 53.4814 5.85282L53.484 5.83529L53.4466 5.82963ZM52.9147 5.3854C52.9101 5.40601 52.9069 5.42694 52.9053 5.44801C52.9276 5.46931 52.9426 5.47157 52.9427 5.45366C52.9507 5.43209 52.9542 5.40906 52.9528 5.38605C52.9405 5.36626 52.9177 5.36537 52.9147 5.3854ZM52.3487 5.11783C52.4192 5.1851 52.5022 5.2377 52.5929 5.27263C52.648 5.28097 52.6297 5.25415 52.6124 5.22875L52.6082 5.22253L52.606 5.21908C52.6045 5.21684 52.6031 5.21464 52.6019 5.21253C52.5953 5.201 52.5819 5.1997 52.5677 5.19831C52.5473 5.19632 52.525 5.19415 52.5179 5.16139L52.5976 5.17346C52.5128 5.01788 52.4529 5.05449 52.3786 5.09999C52.3689 5.10592 52.359 5.11201 52.3487 5.11783ZM51.6996 4.48683L51.7171 4.48947L51.7193 4.47445L51.6996 4.48683ZM51.0773 3.66013L51.0747 3.67766C51.1346 3.8193 51.1373 3.82032 51.2515 3.86288L51.2531 3.86347C51.2401 3.80873 51.2025 3.79095 51.1654 3.77341C51.127 3.75519 51.089 3.73724 51.0797 3.67842L51.0773 3.66013ZM50.9158 3.44616C50.9332 3.50001 50.9588 3.54999 51.0054 3.51095C51.0211 3.49782 51.0314 3.49198 51.0375 3.48847C51.0419 3.48598 51.0442 3.48466 51.045 3.48273C51.0458 3.48057 51.0446 3.47764 51.0421 3.47143C51.0406 3.46781 51.0387 3.46309 51.0365 3.45675C51.0297 3.43453 51.0161 3.41506 50.9975 3.4012C50.979 3.38733 50.9565 3.37979 50.9334 3.37968C50.9049 3.38304 50.9029 3.41347 50.9158 3.44616ZM50.7313 2.97773C50.7276 3.03879 50.7478 3.0989 50.7878 3.14506C50.7926 3.08645 50.7771 3.02796 50.7438 2.97962L50.7313 2.97773ZM50.6717 2.71261C50.6694 2.7199 50.6683 2.7275 50.6683 2.73515C50.6683 2.73515 50.665 2.75768 50.6767 2.76458C50.6884 2.77147 50.6966 2.7676 50.6804 2.73954C50.6837 2.72988 50.6853 2.7197 50.6849 2.70949L50.6717 2.71261ZM57.7959 10.4218C57.808 10.4131 57.8181 10.405 57.8263 10.3975L57.7734 10.4087L57.7331 10.4171L57.6829 10.4276C57.7051 10.4529 57.737 10.4641 57.7959 10.4218ZM53.773 10.9372L53.7481 10.9371L53.7186 10.937C53.7153 10.9384 53.7121 10.9399 53.7089 10.9416C53.694 10.9496 53.6812 10.9611 53.6715 10.9751C53.663 10.9814 53.6674 11.0026 53.6923 11.0064C53.7347 11.0128 53.7675 10.9973 53.7749 10.9651C53.7782 10.9508 53.7765 10.9423 53.773 10.9372ZM56.4525 12.3966C56.503 12.3386 56.5536 12.2807 56.6043 12.223C56.564 12.2215 56.5208 12.2398 56.4722 12.3393C56.4625 12.3603 56.4558 12.3797 56.4525 12.3966ZM64.828 7.7636C64.8452 7.75084 64.8321 7.73606 64.7898 7.72965C64.785 7.729 64.7801 7.72976 64.7758 7.73182C64.7714 7.73388 64.7677 7.73716 64.7651 7.74128C64.7651 7.74128 64.7826 7.74392 64.7874 7.76258C64.7923 7.78124 64.8223 7.76786 64.828 7.7636ZM65.7651 8.27433C65.7595 8.24919 65.7512 8.22474 65.7403 8.20144C65.701 8.17499 65.6811 8.17197 65.688 8.19351C65.6928 8.22164 65.7047 8.2481 65.7223 8.27042C65.7389 8.29597 65.7695 8.29549 65.7651 8.27433ZM66.2588 8.44644C66.3996 8.49579 66.5309 8.569 66.6471 8.6629C66.6398 8.66673 66.6327 8.67058 66.6258 8.67435C66.54 8.721 66.4785 8.75448 66.29 8.56128L66.407 8.57901C66.3924 8.55879 66.373 8.54263 66.3505 8.53206C66.3281 8.52149 66.3033 8.51684 66.2785 8.51857C66.2727 8.51373 66.2664 8.5087 66.26 8.50362C66.217 8.46928 66.172 8.43329 66.2588 8.44644ZM67.734 9.56368L67.7088 9.5445L67.7254 9.57006L67.734 9.56368ZM68.0446 9.83609L67.9948 9.82855L68.0203 9.84522L68.0446 9.83609ZM68.7935 10.7357L68.7965 10.7157C68.7874 10.7031 68.779 10.6914 68.771 10.6805C68.7775 10.6899 68.7837 10.7003 68.7894 10.7121L68.7935 10.7357ZM68.6471 10.5354C68.6824 10.5617 68.7108 10.5975 68.7653 10.6726C68.7334 10.6307 68.6941 10.6119 68.6545 10.5929C68.6032 10.5683 68.5516 10.5436 68.5153 10.4682L68.522 10.4712C68.5822 10.4977 68.6172 10.5131 68.6471 10.5354ZM69.0905 10.9805C69.0361 10.9185 68.9806 10.864 68.952 10.9185C68.9415 10.9386 68.9328 10.9472 68.9275 10.9522C68.9247 10.955 68.9229 10.9568 68.9225 10.9588C68.9221 10.9606 68.9228 10.9626 68.9247 10.9657C68.9254 10.9668 68.9263 10.9681 68.9274 10.9697L68.9285 10.9712L68.931 10.9746L68.9369 10.9824L68.9415 10.9887C68.96 11.0138 68.9847 11.0338 69.0131 11.0466C69.0415 11.0595 69.0727 11.0647 69.1037 11.0619C69.1423 11.0421 69.1262 11.0141 69.1033 10.9799L69.0905 10.9805ZM69.6191 11.4388C69.5652 11.374 69.4977 11.3221 69.4215 11.2867C69.4711 11.3558 69.5399 11.4086 69.6191 11.4388ZM69.9375 11.6671C69.9342 11.6579 69.9283 11.6499 69.9206 11.644C69.9111 11.6335 69.8991 11.6256 69.8858 11.6208L69.8808 11.6201C69.8779 11.6197 69.8755 11.6193 69.8736 11.6192C69.8707 11.619 69.869 11.6191 69.8686 11.6199C69.8677 11.6217 69.8736 11.6269 69.8864 11.638C69.8907 11.6417 69.8959 11.6463 69.9016 11.6514L69.9375 11.6671ZM70.4432 11.946L70.4133 11.9415L70.4335 11.9599L70.4432 11.946ZM54.6073 10.9504C54.6271 10.9394 54.6506 10.9362 54.674 10.933C54.7064 10.9286 54.7386 10.9243 54.7601 10.8992C54.703 10.8963 54.6466 10.9131 54.6002 10.9467L54.5924 10.9481L54.6073 10.9504ZM52.49 10.9574C52.49 10.9574 52.5012 10.9847 52.5154 10.992C52.5304 11.0022 52.5483 11.0072 52.5663 11.0062C52.5844 11.0053 52.6017 10.9984 52.6155 10.9867C52.6331 10.9714 52.6196 10.9591 52.6001 10.9536C52.566 10.9376 52.5272 10.9353 52.4915 10.9474L52.49 10.9574ZM52.1964 10.9795L52.2453 10.9588L52.3064 10.9424L52.2407 10.9555C52.2388 10.9558 52.2347 10.9549 52.2297 10.9538C52.2141 10.9504 52.19 10.945 52.1979 10.9695L52.1964 10.9795ZM51.7751 10.9362C51.7952 10.9546 51.8448 10.9467 51.8721 10.9176C51.876 10.9134 51.8806 10.911 51.8856 10.9099L51.8653 10.9114L51.8129 10.9214C51.8129 10.9214 51.7476 10.8987 51.7766 10.9262L51.7751 10.9362ZM51.9222 10.9149C51.9128 10.9122 51.9035 10.9096 51.895 10.9092L51.9787 10.903C51.9667 10.9275 51.9444 10.9212 51.9222 10.9149ZM51.3032 10.8903C51.3005 10.9078 51.2994 10.9153 51.3304 10.9124C51.3339 10.912 51.3367 10.9118 51.3391 10.9116L51.3422 10.9114C51.3468 10.911 51.3484 10.9109 51.3486 10.9103C51.3487 10.91 51.3484 10.9096 51.348 10.9089C51.3468 10.9071 51.3445 10.9037 51.3455 10.8967C51.3468 10.8879 51.3468 10.8879 51.3443 10.8898C51.3418 10.8917 51.3368 10.8954 51.3281 10.8941C51.3177 10.8925 51.3125 10.8863 51.3094 10.8825L51.3086 10.8816C51.3078 10.8806 51.3071 10.8798 51.3064 10.8796C51.3061 10.8794 51.3067 10.8795 51.3064 10.8796C51.3061 10.8797 51.305 10.8798 51.3047 10.8803L51.3032 10.8903ZM50.6556 10.6744C50.6537 10.6868 50.6606 10.6995 50.6672 10.7119C50.6713 10.7194 50.6754 10.7269 50.6772 10.734C50.682 10.7527 50.7195 10.7404 50.7147 10.7218C50.7094 10.6984 50.6987 10.6766 50.6835 10.6581C50.6704 10.6433 50.6515 10.6507 50.6559 10.6719L50.6556 10.6744ZM50.0311 10.6438C50.1222 10.6763 50.2185 10.6909 50.315 10.6868C50.3775 10.6774 50.3301 10.6491 50.3004 10.6314L50.2934 10.6272C50.282 10.6203 50.2695 10.6241 50.2565 10.6281C50.2374 10.6339 50.2174 10.6401 50.1988 10.6129L50.2772 10.5991C50.1438 10.4815 50.1014 10.5421 50.0516 10.6133C50.0451 10.6226 50.0385 10.6321 50.0315 10.6413L50.0311 10.6438ZM49.1772 10.3096L49.1971 10.3126L49.184 10.2978L49.1772 10.3096ZM48.5254 9.90729C48.418 9.91041 48.402 9.91087 48.3261 9.83526C48.3543 9.8543 48.3858 9.85601 48.4169 9.85768C48.4588 9.85995 48.5002 9.86219 48.532 9.9071L48.5254 9.90729ZM48.0614 9.64886C48.1006 9.69321 48.1413 9.72754 48.171 9.66545C48.1826 9.64107 48.1909 9.63119 48.195 9.62636C48.196 9.62511 48.1968 9.62419 48.1973 9.62346C48.1977 9.62283 48.1978 9.62234 48.1978 9.62187C48.1977 9.62085 48.1965 9.61996 48.1942 9.61817C48.1913 9.61594 48.1866 9.61232 48.18 9.60536C48.1656 9.58691 48.1457 9.57361 48.1232 9.56744C48.1008 9.56127 48.0769 9.56255 48.0552 9.57109C48.0362 9.59637 48.0452 9.6208 48.07 9.64247L48.0614 9.64886ZM47.7266 9.28314C47.7357 9.31267 47.7508 9.33998 47.771 9.36332C47.7912 9.38666 47.8159 9.40551 47.8438 9.4187C47.8238 9.36191 47.7852 9.31363 47.7344 9.28176L47.7266 9.28314ZM47.5691 9.05952C47.5656 9.06559 47.5645 9.07274 47.5661 9.07956C47.5661 9.07956 47.5631 9.09959 47.5826 9.10511C47.6021 9.11063 47.6025 9.10813 47.5867 9.07757C47.5791 9.06276 47.5784 9.05742 47.5788 9.05572C47.5785 9.05576 47.578 9.05575 47.5773 9.05565L47.5691 9.05952ZM64.013 11.6671C63.8174 11.5246 63.3735 11.322 63.1623 11.651C62.8983 12.0624 64.4886 12.8352 64.013 11.6671Z" fill="#E33529"/>
<path d="M64.8729 32.8115L64.8774 32.7812C64.8752 32.7912 64.8737 32.8013 64.8729 32.8115Z" fill="#E33529"/>
<path d="M21.7691 29.0397L21.8786 29.0563C21.8752 29.0557 21.847 29.0396 21.8174 29.0227C21.8036 29.0147 21.7895 29.0067 21.7776 29C21.7726 29.0051 21.7691 29.0116 21.7676 29.0186C21.7661 29.0256 21.7666 29.0329 21.7691 29.0397Z" fill="#E33529"/>
<path fill-rule="evenodd" clip-rule="evenodd" d="M65.4334 33.2541C65.3388 33.1855 65.2426 33.1193 65.1448 33.0555C65.2101 33.0532 65.2735 33.0016 65.3294 32.9108C65.3783 33.0949 65.4715 33.2038 65.6325 33.0976C65.6791 33.1354 65.7252 33.1128 65.7717 33.09C65.818 33.0673 65.8647 33.0444 65.9126 33.0811C65.9141 33.0855 65.9157 33.0901 65.9173 33.0948C65.9303 33.1336 65.9456 33.1792 65.9831 33.1712C66.0908 33.1516 66.1998 33.1398 66.3092 33.1361C66.3702 33.1253 66.4322 33.1226 66.4938 33.1282C66.5813 33.1475 66.646 33.0758 66.7074 33.0076C66.7239 32.9894 66.7401 32.9713 66.7565 32.9554C66.8881 33.1649 66.8973 33.1714 67.0404 32.9984C67.1136 33.1555 67.2171 33.1788 67.3124 33.0524C67.3515 32.9977 67.3934 32.9451 67.4379 32.8947C67.4357 32.8801 67.4319 32.8658 67.4265 32.852L67.429 32.8524C67.435 32.8617 67.4395 32.8719 67.4423 32.8826L67.44 32.8976C67.4581 33.0489 67.4737 33.0641 67.5698 33.0172C67.6573 32.9853 67.7312 32.9242 67.7791 32.844C67.8913 32.9052 67.8872 32.8017 67.8852 32.752C67.885 32.7483 67.8849 32.7448 67.8848 32.7418V32.7394C67.8847 32.7374 67.8848 32.7357 67.8848 32.7342C67.8849 32.7322 67.8851 32.7306 67.8854 32.7295C67.8877 32.7214 67.8923 32.7145 67.8974 32.7071C67.9045 32.6966 67.9124 32.685 67.9151 32.6674C67.918 32.6803 67.9203 32.6941 67.9225 32.7078C67.9331 32.7728 67.9433 32.8346 68.0228 32.781C68.0867 32.7511 68.1541 32.7294 68.2235 32.7167C68.2584 32.7038 68.2896 32.6824 68.3142 32.6544C68.3389 32.6264 68.3562 32.5927 68.3646 32.5562C68.3709 32.5316 68.4106 32.5043 68.4403 32.4934C68.4688 32.4834 68.4939 32.4654 68.5124 32.4413C68.5309 32.4173 68.5421 32.3884 68.5446 32.3581C68.5536 32.3067 68.5688 32.2566 68.5899 32.2088C68.617 32.2341 68.6075 32.2593 68.5987 32.2824C68.5894 32.3067 68.581 32.3288 68.6177 32.3462C68.689 32.38 68.7032 32.2849 68.7092 32.2448C68.7126 32.2224 68.7114 32.1986 68.7103 32.1753C68.7093 32.1569 68.7084 32.1387 68.7098 32.122C68.713 32.084 68.7553 32.0904 68.7926 32.0961C68.8228 32.0648 68.8483 32.0303 68.8348 31.9847C68.8008 31.8681 68.8453 31.784 68.8916 31.6967C68.9346 31.6153 68.9792 31.5311 68.9634 31.4151C68.9613 31.4123 68.981 31.3999 68.981 31.3999C69.0339 31.3208 69.0572 31.2254 69.0468 31.1307C69.0463 31.0862 69.0373 31.0423 69.0203 31.0012C69.0068 30.9576 68.9863 30.9164 68.9596 30.8793C68.9023 30.8095 68.8278 30.7558 68.7436 30.7237C68.7001 30.7005 68.65 30.6929 68.6016 30.7022C68.5484 30.707 68.4957 30.7171 68.4443 30.7321C68.3988 30.7503 68.3498 30.7579 68.301 30.7545C68.2521 30.7511 68.2047 30.7367 68.1621 30.7124C68.1586 30.7106 68.1536 30.7148 68.1476 30.7198C68.1413 30.725 68.134 30.7312 68.126 30.7326C68.1103 30.7353 67.9268 30.7869 67.9268 30.7869C67.774 30.7713 67.7734 30.7738 67.7334 30.9281L67.7312 30.9365C67.7249 30.8767 67.6922 30.8231 67.6472 30.8342C67.5438 30.8346 67.4419 30.8585 67.349 30.9042C67.2565 30.9729 67.2192 31.0235 67.2198 31.1197C67.1638 31.1331 67.1061 31.1469 67.0468 31.1611C67.0403 31.1499 67.0217 31.1484 67.0112 31.1528C66.9974 31.1575 66.9854 31.1662 66.9766 31.1778C66.8855 31.1995 66.7907 31.222 66.6918 31.2451L66.6849 31.2467C66.6846 31.2429 66.6842 31.2392 66.6835 31.2354C66.6798 31.2146 66.6706 31.1952 66.6567 31.1792C66.6429 31.1633 66.625 31.1514 66.605 31.1449C66.5729 31.1287 66.5383 31.1183 66.5026 31.1141C66.4497 31.1112 66.3972 31.1033 66.3458 31.0903L66.1956 31.0215L66.0526 30.9563C66.0055 30.9291 65.9561 30.9062 65.905 30.8878L65.7654 30.8334L65.6264 30.7585C65.5625 30.7232 65.4966 30.6929 65.4295 30.6619L65.4043 30.6503L65.3894 30.6434L65.3744 30.6364C65.3658 30.6324 65.3572 30.6283 65.3486 30.6242C65.1057 30.5252 64.8779 30.3924 64.6717 30.2298C64.607 30.1739 64.5353 30.1268 64.4583 30.0899C64.2975 30.0044 64.1417 29.9098 63.9915 29.8066C63.9179 29.7491 63.8407 29.6964 63.7605 29.6487C63.6598 29.6075 63.5668 29.5493 63.4858 29.4765C63.3372 29.3565 63.1948 29.2289 63.0591 29.0943C63.0483 29.0797 63.0346 29.0675 63.0189 29.0585C63.0031 29.0495 62.9857 29.0439 62.9677 29.042C62.8887 29.0408 62.8375 28.9963 62.7856 28.9512C62.7389 28.9106 62.6916 28.8696 62.6232 28.8592C62.6215 28.8593 62.6198 28.8591 62.6182 28.8588L62.6158 28.8583C62.6149 28.8581 62.6141 28.8578 62.6133 28.8575C62.6112 28.8566 62.6091 28.8555 62.6073 28.8541C62.6027 28.8506 62.5995 28.8456 62.5981 28.84C62.5832 28.7539 62.515 28.7008 62.4573 28.656C62.4251 28.6311 62.3963 28.6087 62.3817 28.5845C62.3638 28.5548 62.3243 28.541 62.2857 28.5276C62.2364 28.5105 62.1885 28.4939 62.1887 28.4451C62.1884 28.4029 62.1577 28.385 62.1284 28.3677C62.1239 28.365 62.1192 28.3623 62.1149 28.3597C62.0865 28.3452 62.0636 28.3216 62.05 28.2927C62.0363 28.2637 62.0327 28.231 62.0395 28.1997C62.0249 28.1832 62.0069 28.17 61.9868 28.161C61.8892 28.181 61.813 28.0932 61.7349 28.0032C61.7036 27.9672 61.672 27.9308 61.6387 27.9008C61.6296 27.8764 61.6204 27.8699 61.6171 27.8745C61.6139 27.8791 61.6255 27.9039 61.6255 27.9039C61.5337 27.8572 61.4563 27.7861 61.4016 27.6984C61.3756 27.6531 61.3469 27.6097 61.3154 27.5684C61.3039 27.4291 61.2972 27.2894 61.2948 27.1499C61.3016 27.1368 61.3053 27.0841 61.3097 27.0198C61.3139 26.9607 61.3186 26.8915 61.3272 26.8343C61.338 26.6797 61.3367 26.5246 61.3231 26.3704C61.4153 25.3102 61.7078 24.3333 61.9587 23.7417C61.9431 23.738 61.9275 23.7343 61.912 23.7306C61.8498 23.6864 61.6962 23.6193 61.4499 23.5338C61.1753 23.4461 60.8464 23.3297 60.5374 23.2163C58.5417 22.4575 56.6637 21.4167 54.9599 20.1254C54.532 19.8199 54.1256 19.4894 53.7279 19.1526C53.5294 18.9816 53.3337 18.8086 53.1438 18.6313L52.8606 18.363L52.5153 18.0162L52.0365 17.5237L51.9771 17.4609C51.9735 17.4573 51.9694 17.4523 51.9651 17.447C51.948 17.4262 51.9275 17.4013 51.9221 17.4372L51.8264 17.5661L51.6371 17.8268C51.6088 17.8663 51.5798 17.907 51.5505 17.9482C51.4529 18.0854 51.3515 18.2278 51.2613 18.3461L51.0018 18.6167C50.6516 18.9818 50.2613 19.3059 49.8385 19.5826C49.7083 19.6729 49.5727 19.755 49.4324 19.8284C49.3825 19.8558 49.3331 19.8843 49.2837 19.9129C49.1956 19.9637 49.1073 20.0146 49.0157 20.0598L48.5848 20.2506L48.3682 20.3535L48.1439 20.4399C48.1154 20.4509 48.087 20.4619 48.0585 20.4729C47.7872 20.578 47.5164 20.683 47.2347 20.7631L46.7749 20.9086L46.3035 21.0293C45.0412 21.3389 43.7546 21.5382 42.4581 21.6248C42.2337 21.6439 42.0034 21.6542 41.7703 21.6645C41.5882 21.6726 41.4043 21.6808 41.2203 21.6933L39.9614 21.7331C38.1721 21.7759 36.3819 21.6972 34.603 21.4976C34.021 21.4264 33.4511 21.3345 32.8689 21.2407C32.5732 21.193 32.2737 21.1447 31.9685 21.0985C30.9361 20.939 29.9154 20.7108 28.913 20.4154C28.0487 20.1661 27.2098 19.8349 26.4076 19.4263L26.1232 19.268L25.8144 19.0855C25.8073 19.0814 25.8002 19.0774 25.7931 19.0733C25.7854 19.0689 25.7778 19.0645 25.7701 19.06L25.7406 19.043L25.6734 19.0041C25.514 18.9117 25.3539 18.819 25.1895 18.7348C24.7735 18.5027 24.3467 18.2921 23.9191 18.0865L23.8655 18.0618C23.7293 17.9992 23.5797 17.9303 23.4268 17.871C23.2535 17.8038 23.0891 17.7456 22.9576 17.7052C22.7686 17.6473 22.5741 17.586 22.3756 17.5235C21.3747 17.2081 20.2736 16.861 19.2787 16.7637C19.1683 16.7534 19.0585 16.7368 18.95 16.714C18.6978 16.6516 18.4416 16.6068 18.1832 16.5799C18.1204 16.5715 18.057 16.5676 17.993 16.5636C17.9197 16.559 17.8456 16.5543 17.7711 16.543L17.561 16.5343L17.5286 16.5294L17.298 16.3689C17.2597 16.3408 17.2205 16.3135 17.1814 16.2863C17.1129 16.2387 17.0445 16.1911 16.981 16.1391C16.9254 16.0932 16.8692 16.0485 16.8133 16.0039C16.6664 15.8869 16.5208 15.7709 16.3911 15.64C16.3226 15.5782 16.2499 15.5135 16.1748 15.4465C15.6769 15.0028 15.0706 14.4623 14.8304 14.0565C14.7295 13.8763 14.5893 13.6901 14.4491 13.5039C14.3716 13.401 14.2942 13.2981 14.2233 13.1963C14.0498 12.9873 13.9239 12.7427 13.8544 12.4797L13.7876 12.3645C13.764 12.3166 13.7369 12.2706 13.7064 12.2268C13.3323 11.7834 13.0334 10.9903 12.7893 10.308C12.788 10.2526 12.7714 10.1986 12.7413 10.1522C12.7429 10.1789 12.7474 10.2054 12.755 10.2311C12.5503 9.74159 12.3997 9.23098 12.3057 8.70843C12.1165 7.62758 12.0224 6.62063 11.9291 5.62188C11.9182 5.50489 11.9072 5.38796 11.8962 5.27109C11.8726 5.0573 11.8708 4.84164 11.8907 4.62747C11.928 4.37889 11.9514 4.1004 11.9742 3.83054C12.0002 3.52139 12.0253 3.22356 12.0691 2.99501C12.1061 2.80227 12.1409 2.6372 12.1724 2.488C12.2384 2.17496 12.2897 1.93167 12.3164 1.64958L11.5394 1.41406L11.5326 1.45913C11.5298 1.49048 11.4795 1.63882 11.4326 1.77737C11.4152 1.82854 11.3984 1.87863 11.3845 1.92071C11.3408 2.0526 11.2983 2.18202 11.2565 2.30941C11.2272 2.39871 11.1983 2.48701 11.1694 2.57446C11.0972 2.78354 11.038 2.99696 10.9922 3.21346C10.9645 3.34614 10.9331 3.47704 10.9016 3.6086C10.8311 3.90278 10.7598 4.20034 10.7266 4.52794C10.7129 4.66281 10.6971 4.79902 10.6811 4.93756C10.6409 5.28609 10.5989 5.64933 10.5837 6.04285C10.5597 6.66199 10.5757 7.28205 10.6316 7.8991C10.637 7.98437 10.637 8.06991 10.6314 8.15517C10.5686 8.60297 10.611 9.05934 10.7552 9.48768C10.8877 10.7656 11.2522 12.0083 11.8307 13.1539C11.8333 13.1594 11.839 13.1955 11.845 13.233C11.848 13.2523 11.8512 13.272 11.8539 13.2881L11.8391 13.2683C11.8179 13.2401 11.8069 13.2255 11.8054 13.2265C11.8038 13.2274 11.813 13.246 11.832 13.2844C11.8461 13.3129 11.8656 13.3524 11.8901 13.4037C11.9167 13.4594 11.9431 13.5155 11.9696 13.5717C12.0374 13.716 12.1057 13.8612 12.1797 14.0032L12.503 14.5823C12.606 14.8425 12.7558 15.0814 12.945 15.287C12.9937 15.3454 13.0393 15.4101 13.0855 15.4757C13.1089 15.5089 13.1323 15.5422 13.1565 15.5751L13.3854 15.8659C13.5378 16.0554 13.6931 16.2428 13.8595 16.4242C13.9128 16.4824 13.9653 16.5412 14.0178 16.6002C14.1292 16.7251 14.2412 16.8506 14.3632 16.9718L14.4928 17.1092L14.5214 17.1392C14.5387 17.1597 14.5384 17.1622 14.535 17.1847L14.5222 17.2699L14.465 17.2612L14.4214 17.2802L14.337 17.3161C14.2972 17.3341 14.2564 17.3506 14.2153 17.3673C14.138 17.3987 14.0595 17.4306 13.9851 17.4728C13.7497 17.5928 13.5233 17.7296 13.3074 17.8823C12.8742 18.1907 12.4909 18.5646 12.1712 18.9906C11.761 19.5157 11.4307 20.0992 11.1911 20.7219L11.2725 20.9263C11.0901 21.1752 11.0977 21.0227 11.1738 20.7526C11.0985 20.6771 10.817 21.162 10.6995 21.641L10.6822 21.7562C10.6787 21.7702 10.6765 21.7844 10.6758 21.7988L10.6544 21.9415C10.6434 21.9359 10.6317 21.9262 10.6197 21.9162C10.6009 21.9007 10.5813 21.8844 10.5616 21.8814C10.546 21.8715 10.5292 21.8638 10.5115 21.8584C10.4438 21.8174 10.3736 21.7761 10.3123 21.7437C9.96832 21.5703 9.70051 21.4154 9.45647 21.2742C9.14948 21.0967 8.88011 20.9409 8.5441 20.7972C8.48541 20.7628 8.41935 20.7432 8.3515 20.7399C8.37508 20.7534 8.39978 20.7649 8.42532 20.7741L7.80191 20.7027C7.6003 20.6876 7.39775 20.7145 7.20692 20.7816C6.99286 20.8589 6.80632 20.9982 6.67075 21.1818C6.63902 21.2237 6.61104 21.2683 6.58712 21.3151L6.52429 21.4286L6.42705 21.6187L6.23905 21.9897C6.15056 22.1536 6.06557 22.3156 5.98231 22.4743C5.82019 22.7834 5.66462 23.08 5.50255 23.3532C5.29955 23.5443 5.14973 23.6715 5.01946 23.7821C4.92734 23.8603 4.84452 23.9306 4.76002 24.009C4.46687 24.2859 4.13606 24.5195 3.77753 24.7027C3.71511 24.7394 3.64632 24.7662 3.57695 24.7932C3.5346 24.8097 3.49204 24.8263 3.45058 24.8453C3.34016 24.8817 3.22559 24.904 3.10961 24.9114C2.74876 24.9234 2.40547 24.92 2.05048 24.9098C1.58255 24.8844 1.12272 25.0402 0.765442 25.3451C0.574969 25.4978 0.424046 25.6946 0.32554 25.9187C0.284872 26.0064 0.263613 26.1019 0.263232 26.1986C0.297942 26.3253 0.310084 26.4572 0.299099 26.5882C0.281088 26.7407 0.281953 26.8948 0.301676 27.047C0.251866 26.8525 0.22734 26.8462 0.193333 26.8692C0.18901 26.8722 0.184666 26.8755 0.180322 26.8788C0.150515 26.9018 0.12058 26.9248 0.0968658 26.8162C0.0696742 26.6917 0.0467846 26.6575 0.0167036 26.7733C-0.00237219 26.8812 -0.00512751 26.9913 0.00853112 27.0999C0.0307847 27.3122 0.113889 27.5134 0.24774 27.6791C0.406242 27.8542 0.615073 27.9754 0.845204 28.0257C1.0237 28.0699 1.20998 28.0718 1.38934 28.0313L1.35448 28.026C1.5602 27.9957 1.78062 27.9522 1.99258 27.8973C2.15639 27.8548 2.31627 27.798 2.46599 27.7447C2.50987 27.7291 2.55326 27.7137 2.59524 27.6992C3.26779 27.4425 3.91107 27.1943 4.62537 26.8799C4.78766 26.8077 4.9454 26.7255 5.09769 26.6339C5.23328 26.5444 5.35569 26.458 5.47808 26.3716C5.49729 26.3521 5.5161 26.3307 5.5349 26.3093C5.5484 26.2939 5.56199 26.2783 5.57595 26.2633C5.66734 26.2172 5.65669 26.2251 5.62118 26.2515C5.58391 26.2791 5.51925 26.3271 5.51649 26.3542C5.51111 26.4072 5.62046 26.3572 5.85739 26.2035C6.2736 25.9244 6.66239 25.606 7.01848 25.2526L7.28375 24.9778L7.55103 24.6726C7.5907 24.6219 7.61512 24.5913 7.63162 24.5706C7.65831 24.5371 7.66425 24.5297 7.6805 24.5052C7.70436 24.4732 7.72638 24.4397 7.74643 24.4051C7.78699 24.4382 7.82236 24.4772 7.85133 24.5209L7.87459 24.5526C7.88456 24.5717 7.8974 24.5892 7.91266 24.6044L8.06794 24.7918C8.08312 24.811 8.11658 24.8388 8.15481 24.8706C8.1921 24.9016 8.23396 24.9365 8.26781 24.9707C8.26974 24.9727 8.27169 24.9747 8.27363 24.9767C8.27266 24.9779 8.2717 24.979 8.27073 24.9802L8.26998 24.9811C8.24136 25.016 8.21268 25.0509 8.18431 25.0863C8.07454 25.2224 7.95328 25.3481 7.83164 25.4741C7.7453 25.5636 7.65876 25.6533 7.576 25.747C7.24755 26.0785 6.88407 26.373 6.49204 26.6251C6.31132 26.751 6.1167 26.8508 5.92348 26.9499C5.80664 27.0099 5.69031 27.0696 5.57789 27.1346C5.38301 27.2683 5.1657 27.3655 4.93645 27.4215C4.90232 27.4326 4.87242 27.454 4.85087 27.4828C4.8362 27.4974 4.82548 27.5155 4.81973 27.5354C4.81398 27.5553 4.81339 27.5764 4.81802 27.5966C4.82147 27.6117 4.82772 27.6259 4.8364 27.6385C4.73901 27.6618 4.64621 27.6875 4.55791 27.7151L4.55917 27.7131C4.56722 27.6994 4.57048 27.6835 4.56845 27.6678C4.55078 27.6497 4.53335 27.6471 4.52076 27.6631C4.50191 27.6786 4.48883 27.7001 4.48362 27.724C4.48271 27.7301 4.48423 27.7347 4.4872 27.738C4.43221 27.7564 4.37906 27.7756 4.32771 27.7955C4.32203 27.7592 4.31064 27.7174 4.29354 27.6673C4.10014 27.6985 3.91562 27.771 3.75239 27.8798C3.76624 27.8451 3.78318 27.8116 3.803 27.7799C3.89732 27.7108 3.99835 27.6515 4.10457 27.6028L4.43025 27.4857C4.55821 27.4597 4.67531 27.3953 4.76606 27.301C4.69639 27.2453 4.63616 27.2662 4.57989 27.2857C4.56269 27.2916 4.54585 27.2975 4.52923 27.3009C4.48577 27.3098 4.44326 27.3243 4.40076 27.3388C4.30969 27.3699 4.21862 27.4009 4.11803 27.3769C4.00628 27.356 3.89082 27.3788 3.79524 27.4407C3.68906 27.5033 3.58748 27.5735 3.49129 27.6508C3.31165 27.7711 3.1526 27.92 3.02034 28.0916C2.94832 28.1815 2.8852 28.2783 2.8319 28.3806C2.77789 28.4922 2.73719 28.6098 2.71065 28.731C2.65034 28.9942 2.68182 29.2702 2.79981 29.5128C2.91511 29.7498 3.10458 29.9423 3.33913 30.0606C3.39717 30.0924 3.45801 30.1188 3.52087 30.1393C3.5833 30.1635 3.64831 30.1802 3.71459 30.1892L3.92127 30.2205C3.98145 30.2218 4.04164 30.2181 4.1012 30.2093C4.31377 30.1895 4.52257 30.1401 4.72163 30.0626C5.05346 29.9577 5.37792 29.8306 5.69285 29.6822C5.83124 29.6084 5.96896 29.539 6.10669 29.4696C6.24442 29.4002 6.38215 29.3307 6.52053 29.257C7.03048 28.9719 7.52072 28.6526 7.98793 28.3012C8.06519 28.2405 8.1455 28.1817 8.22575 28.1229C8.35535 28.0281 8.48482 27.9333 8.60085 27.8307C8.67787 27.7625 8.7584 27.6967 8.83952 27.6303C8.95627 27.5348 9.07429 27.4383 9.18477 27.3327C9.23166 27.2918 9.27501 27.2469 9.31435 27.1986C9.37796 27.1157 9.44597 27.0362 9.51808 26.9606C9.56078 26.9179 9.60404 26.8713 9.64804 26.824C9.67504 26.7949 9.70232 26.7655 9.7299 26.7366C9.79044 26.6781 9.84943 26.618 9.90679 26.5563C10.613 27.2438 10.9395 27.3544 11.2373 27.4553C11.2704 27.4665 11.3033 27.4776 11.3361 27.4893C11.506 27.5498 11.6648 27.6378 11.8063 27.7501C11.6533 27.6834 11.6408 27.6994 11.7782 27.8022C11.8144 27.8665 11.8573 27.9371 12.2033 28.0919C12.8264 28.3638 13.4942 28.517 14.1729 28.5439C14.2488 28.5455 14.3208 28.5465 14.3903 28.5475C14.5182 28.5492 14.6381 28.5509 14.7594 28.556L15.3641 28.5989C15.6252 28.6227 15.8882 28.6109 16.1461 28.5637C16.331 28.5158 16.0733 28.5015 15.8627 28.4899L15.834 28.4883C15.6193 28.4762 15.5423 28.4466 15.5635 28.4242C15.6222 28.403 15.6826 28.3868 15.7439 28.3756C15.9299 28.371 16.1219 28.3631 16.3204 28.3522C16.3709 28.3495 16.4212 28.3469 16.4714 28.3447C16.532 28.3566 16.568 28.3743 16.6023 28.3912C16.611 28.3955 16.6196 28.3997 16.6285 28.4037C16.6412 28.4115 16.6548 28.4178 16.6689 28.4227C17.0325 28.5509 17.4136 28.6216 17.7988 28.6323C18.1659 28.6672 18.3177 28.6442 18.4634 28.622C18.6034 28.6008 18.7377 28.5804 19.0519 28.6131L19.0428 28.6235C19.0628 28.6246 19.0819 28.6256 19.1003 28.6264C19.4926 28.7905 19.9154 28.8679 20.3403 28.8534C20.6293 28.859 20.9156 28.9119 21.1878 29.0099C21.5389 29.1705 22.0006 29.2901 22.4769 29.4135C22.8865 29.5196 23.3068 29.6284 23.6767 29.7685C24.419 30.0721 25.1964 30.2802 25.9905 30.388L26.2596 30.5465L26.3701 30.6247L26.5069 30.7146C26.6913 30.827 26.8877 30.9439 27.1069 31.0616C27.6176 31.3346 28.1527 31.5589 28.7051 31.7314C29.1481 31.9679 29.557 32.1023 29.9698 32.238C30.3306 32.3566 30.6943 32.4762 31.0863 32.6657L31.179 32.6926L31.0919 32.6794C31.2815 32.8258 31.4965 32.9356 31.7259 33.0033C31.8239 33.0365 31.9221 33.0696 32.0202 33.1028C32.8587 33.3863 33.7021 33.6714 34.5611 33.9322L36.1816 34.4031C36.9742 34.6261 37.7859 34.774 38.606 34.8446L38.6549 34.8647C39.6958 35.2917 39.7261 35.3041 41.1761 35.385C41.4873 35.5237 41.8152 35.6207 42.1515 35.6737C42.6096 35.7406 43.0728 35.7662 43.5355 35.7502C43.5693 35.7492 43.6031 35.7483 43.637 35.7474L43.8113 35.7429C44.1635 35.7339 44.5219 35.7247 44.9127 35.7027C44.9225 35.6888 44.9169 35.6752 44.8988 35.6596L44.9337 35.6649C44.9582 35.6745 44.982 35.6858 45.005 35.6987C44.9744 35.7063 44.9431 35.7102 44.9116 35.7102C44.7838 35.8496 44.8992 35.8953 45.8171 35.8704L46.4006 35.8513C46.5959 35.8399 46.7894 35.8231 46.9779 35.8056C47.3275 35.7782 47.675 35.729 48.0186 35.6584C48.3023 35.6844 48.5884 35.6611 48.8642 35.5894C48.9534 35.5629 49.0208 35.5339 49.0914 35.5035C49.1473 35.4794 49.2054 35.4545 49.2778 35.4292C49.3411 35.41 49.4215 35.3885 49.5227 35.3614C49.5837 35.345 49.6523 35.3266 49.7293 35.3055C49.71 35.3219 49.6847 35.34 49.6595 35.3579C49.5244 35.4541 49.3926 35.548 50.2099 35.3783C50.2924 35.3597 50.3752 35.3412 50.4583 35.3226C51.5306 35.0826 52.647 34.8327 53.5865 34.2406C53.6275 34.2127 53.6896 34.1812 53.7621 34.1443C53.8148 34.1175 53.873 34.0879 53.9326 34.0549C54.0742 33.9765 54.2233 33.8992 54.3363 33.842C54.7744 33.6246 55.1762 33.3398 55.5272 32.9981C55.6 32.9301 55.6733 32.8538 55.7496 32.7743C55.8194 32.7018 55.8916 32.6266 55.9683 32.5527L56.195 32.2976C56.235 32.2509 56.2677 32.2056 56.3001 32.1609C56.3226 32.1298 56.3449 32.099 56.3694 32.068C56.3551 32.1225 56.3301 32.1735 56.296 32.2182C56.2752 32.2516 56.2518 32.2831 56.2258 32.3126L56.1184 32.4346C56.0791 32.4814 56.0401 32.5246 56.0066 32.5616C55.9215 32.6558 55.872 32.7106 55.9434 32.6847C56.0128 32.6533 56.0761 32.61 56.1307 32.5568L56.2347 32.4573L56.2864 32.4011L56.3259 32.3585C56.3647 32.3099 56.4005 32.2588 56.4328 32.2056L56.4624 32.1615C56.4725 32.1451 56.4997 32.1671 56.4997 32.1671L56.5757 32.2042L56.7013 32.2668L56.8829 32.3634L57.2758 32.5792C57.6024 32.7618 57.6655 32.8508 57.7105 32.9242C57.9883 33.1122 58.2775 33.2826 58.5764 33.4344C59.0979 33.6832 59.6328 33.9778 60.1767 34.2773C61.0925 34.7818 62.034 35.3003 62.9804 35.6381C62.9874 35.6408 62.9971 35.6458 63.0085 35.6521C63.0143 35.6553 63.0204 35.6588 63.027 35.6624C63.0476 35.674 63.0717 35.6876 63.096 35.6991C63.6938 35.9927 64.3152 36.235 64.9535 36.4236C65.6476 36.6359 66.3567 36.7956 67.0746 36.9011C67.8074 37.0244 68.5546 37.0349 69.2906 36.932C69.696 36.8843 70.069 36.686 70.3365 36.376C70.3697 36.3259 70.3981 36.2727 70.4214 36.2173L70.4691 36.0862C70.4874 36.0343 70.5082 35.9837 70.5308 35.9289L70.5312 35.9279L70.5399 35.9067C70.5452 35.8938 70.5506 35.8807 70.556 35.8673C70.5637 35.8484 70.5715 35.8288 70.5794 35.8084C70.6276 35.702 70.6647 35.5909 70.6902 35.4769C70.7082 35.4254 70.7137 35.3703 70.7063 35.3162C70.6989 35.262 70.6788 35.2105 70.6477 35.1657C70.5671 35.0893 70.4654 35.0391 70.356 35.0217C70.2449 34.9946 70.1316 34.9774 70.0174 34.9704L69.4454 34.9298C69.0805 34.9168 68.7174 34.8713 68.3605 34.7936L68.0717 34.7499L67.7887 34.684C67.7339 34.6619 67.6717 34.6411 67.6055 34.6189C67.4862 34.5789 67.3537 34.5345 67.2273 34.4709L66.9345 34.3343L66.7001 34.1989C66.6119 34.152 66.5261 34.1005 66.4431 34.0448L66.0775 33.7819L65.8067 33.5668L65.4334 33.2541ZM19.1003 28.6264C19.6386 28.6512 19.4829 28.5729 19.1882 28.4688L19.1811 28.4652L19.0519 28.6131L19.0618 28.6141L19.0746 28.6155C19.0831 28.6192 19.0917 28.6228 19.1003 28.6264ZM8.43935 24.7621C8.41234 24.734 8.384 24.7071 8.3544 24.6816C8.31014 24.6353 8.25946 24.5957 8.20393 24.564C8.26713 24.6507 8.33338 24.7349 8.40255 24.8167C8.40483 24.8138 8.40709 24.8109 8.40936 24.8079C8.41889 24.7923 8.42889 24.777 8.43935 24.7621ZM32.2545 32.8914C32.2709 32.894 32.2879 32.8973 32.3054 32.9012C32.4908 32.9689 32.6751 33.0351 32.8582 33.1C32.6535 33.0414 32.4519 32.9717 32.2545 32.8914ZM37.5865 34.5442C37.5742 34.5413 37.5564 34.5308 37.5409 34.5198C37.6519 34.5475 37.7624 34.5746 37.8724 34.6011C37.776 34.5888 37.6805 34.5698 37.5865 34.5442ZM66.6384 32.894C66.6363 32.8955 66.6305 32.8952 66.6283 32.8822C66.6379 32.882 66.6474 32.8819 66.6569 32.8817C66.6475 32.8885 66.6397 32.893 66.6384 32.894ZM63.2069 29.5187L63.2194 29.5206C63.2194 29.5206 63.2445 29.5398 63.259 29.5112L63.2216 29.5056L63.2069 29.5187ZM62.5855 29.043L62.598 29.0449L62.5998 29.0324L62.5855 29.043ZM62.403 29.0717C62.4145 29.0853 62.43 29.0948 62.4473 29.0989C62.4473 29.0989 62.4706 29.0794 62.4518 29.0688C62.4407 29.0595 62.4279 29.0524 62.4142 29.0478C62.3857 29.0512 62.3817 29.0608 62.3951 29.0731L62.403 29.0717ZM61.5815 28.1124C61.5913 28.1365 61.6032 28.1597 61.6169 28.1818L61.6609 28.2115C61.6652 28.1825 61.6487 28.1662 61.6315 28.1494C61.6221 28.1401 61.6124 28.1306 61.606 28.1187C61.5881 28.0852 61.5688 28.0951 61.5737 28.1138L61.5815 28.1124ZM64.9745 32.8494C64.9664 32.8392 64.9611 32.8242 64.9559 32.8093C64.9432 32.773 64.9305 32.7369 64.8768 32.7705L64.8745 32.7856C64.8719 32.7954 64.8704 32.8055 64.87 32.8156C64.864 32.8557 64.8793 32.9067 64.9336 32.8841C64.9489 32.8746 64.9626 32.8629 64.9745 32.8494ZM65.2047 32.8253C65.207 32.8103 65.2081 32.8028 65.1903 32.8027C65.1725 32.8025 65.1463 32.8242 65.1443 32.8546C65.1423 32.885 65.1538 32.8765 65.1692 32.8584C65.1816 32.848 65.1935 32.837 65.2047 32.8253ZM38.1533 21.9202L38.2556 21.9177L38.156 21.9027L38.1533 21.9202ZM26.7088 19.8126L26.81 19.851C26.8279 19.8537 26.8715 19.8724 26.9162 19.8916C26.9896 19.9231 27.066 19.9558 27.0364 19.9211C27.0047 19.8839 26.9422 19.8716 26.8811 19.8595C26.8504 19.8534 26.82 19.8474 26.7941 19.8383L26.7088 19.8126ZM18.5002 16.9454L18.9833 17.0186C19.0829 17.0337 19.0472 17.0001 18.9181 16.978C18.789 16.9559 18.6093 16.9312 18.5274 16.9342C18.301 16.9153 18.316 16.9175 18.5002 16.9454ZM12.4575 9.92226C12.4701 9.99154 12.5028 10.1106 12.5278 10.2012C12.5331 10.2208 12.5382 10.2391 12.5425 10.2552C12.5924 10.3985 12.6291 10.4937 12.6686 10.5868C12.6313 10.4239 12.5857 10.2632 12.5319 10.1051C12.499 9.98489 12.4504 9.86741 12.4575 9.92226ZM11.1486 10.6356C11.1459 10.598 11.1413 10.5606 11.1348 10.5234C11.1265 10.4796 11.1142 10.4366 11.0981 10.3949C11.0698 10.3625 11.0775 10.4302 11.1147 10.5562C11.1245 10.5833 11.1358 10.6098 11.1486 10.6356ZM13.0244 15.2324L12.962 15.1564C12.8541 15.0094 12.7505 14.8682 12.6338 14.7123C12.6879 14.8011 12.7463 14.888 12.8048 14.9751C12.828 15.0096 12.8512 15.0443 12.8742 15.079C12.91 15.1121 12.9438 15.1472 12.9757 15.184L13.0244 15.2324ZM4.09107 24.6837C4.11719 24.6778 4.1425 24.6687 4.16642 24.6567C4.27615 24.6041 4.33458 24.5541 4.32152 24.5393C4.31219 24.5287 4.2958 24.5393 4.27612 24.552C4.26828 24.5571 4.25979 24.5625 4.25115 24.5671C4.15885 24.6222 4.09158 24.6632 4.09107 24.6837ZM2.50938 25.2123L2.53428 25.2161L2.58957 25.204L2.50938 25.2123ZM1.28001 27.8431L1.17826 27.8764L1.06518 27.9002C1.11293 27.8943 1.16023 27.8852 1.20677 27.873L1.28001 27.8431ZM1.54401 27.5937L1.45311 27.6056L1.45086 27.6206L1.54401 27.5937ZM4.54108 26.6777L4.34962 26.7997C4.27911 26.8454 4.32544 26.8422 4.43479 26.7922C4.50305 26.7554 4.56818 26.713 4.62949 26.6654C4.69577 26.614 4.65542 26.6284 4.54108 26.6777ZM6.64098 25.3926C6.62694 25.403 6.6116 25.4137 6.59657 25.4241C6.57479 25.4392 6.55369 25.4539 6.53821 25.4667C6.44141 25.5519 6.42159 25.5822 6.4881 25.5462C6.4881 25.5462 6.55513 25.4897 6.59026 25.4592L6.64098 25.3926ZM7.38063 24.3651C7.37135 24.3787 7.36204 24.3924 7.35268 24.4063C7.30938 24.4704 7.26489 24.5362 7.21612 24.5962C7.21419 24.6091 7.19054 24.6424 7.16764 24.6746C7.12394 24.736 7.08295 24.7936 7.20074 24.6989L7.2576 24.5743C7.26609 24.5556 7.29526 24.5166 7.32482 24.4771C7.37467 24.4104 7.42561 24.3423 7.38025 24.3676L7.38063 24.3651ZM12.0964 27.7684L12.0251 27.7346L12.047 27.7584L12.0964 27.7684ZM13.1928 28.1676L13.0606 28.1322L12.8249 28.1246L12.8548 28.1291C12.9069 28.1361 12.9745 28.1507 13.0364 28.1641C13.1404 28.1866 13.2283 28.2056 13.1988 28.1787L13.1928 28.1676ZM22.7186 29.3135C22.418 29.1461 22.089 29.0363 21.7485 28.9899L21.6713 28.9782C21.6913 28.9971 21.7137 29.0134 21.7379 29.0267C21.9391 29.1524 22.1654 29.2322 22.4006 29.2602C22.4856 29.2834 22.5544 29.2926 22.6225 29.3018C22.6565 29.3064 22.6902 29.3109 22.7257 29.3172L22.7186 29.3135ZM23.606 29.6119L23.5211 29.5836L23.5434 29.6049L23.606 29.6119ZM24.7453 29.8946C24.8025 29.9032 24.7241 29.8658 24.581 29.8185C24.4378 29.7712 24.2297 29.732 24.2224 29.7641C24.2916 29.807 24.3689 29.8353 24.4493 29.8472L24.4619 29.8496C24.5759 29.8718 24.6823 29.8925 24.7598 29.8993L24.7453 29.8946ZM52.0872 34.7971L51.9876 34.8333L52.0882 34.8075L52.0872 34.7971ZM64.5971 36.2185L64.4927 36.1847L64.5765 36.2205L64.5971 36.2185ZM66.9064 34.4709L67.0026 34.5085L66.9129 34.4616L66.9064 34.4709ZM6.3749 29.024C6.35864 29.0323 6.3424 29.0405 6.3262 29.0487C6.31579 29.06 6.30812 29.0736 6.30385 29.0884L6.30658 29.1042L6.30846 29.0917C6.31062 29.0772 6.32362 29.0709 6.33758 29.0642C6.35412 29.0563 6.37202 29.0477 6.3749 29.024ZM5.85688 29.272C5.84475 29.2774 5.83265 29.2828 5.82058 29.2881C5.81731 29.2985 5.81617 29.3104 5.8156 29.3217C5.81434 29.3472 5.82717 29.3465 5.84037 29.3434L5.8375 29.3456C5.84382 29.3449 5.84989 29.3427 5.85513 29.3391C5.86038 29.3355 5.86465 29.3307 5.86753 29.325C5.87041 29.3193 5.87182 29.313 5.87163 29.3066C5.87144 29.3002 5.86965 29.294 5.86643 29.2885C5.86391 29.2826 5.8607 29.2771 5.85688 29.272ZM7.92685 28.0869C7.91421 28.0958 7.90156 28.1047 7.88892 28.1135C7.90358 28.1179 7.91678 28.1122 7.92685 28.0869ZM5.17778 29.6016C5.17778 29.6016 5.1947 29.6246 5.20428 29.6286C5.21387 29.6327 5.2491 29.6354 5.25511 29.5954C5.25796 29.5763 5.25895 29.5697 5.25648 29.5679C5.25517 29.567 5.2529 29.5673 5.24942 29.5679C5.24566 29.5685 5.24047 29.5694 5.23358 29.5691C5.2083 29.5678 5.20008 29.5717 5.18064 29.5995L5.17778 29.6016ZM5.03446 29.6743L5.0311 29.6967C5.02339 29.6832 5.02861 29.679 5.03282 29.6757L5.03446 29.6743ZM5.0632 29.6354L5.03557 29.6671C5.03506 29.6662 5.03435 29.6653 5.03342 29.6642L5.0632 29.6354ZM4.79042 29.7734C4.80785 29.776 4.82866 29.7561 4.8349 29.7315C4.83743 29.7215 4.84692 29.7209 4.85698 29.7204C4.87172 29.7196 4.88768 29.7187 4.88473 29.6878L4.83067 29.7257C4.83067 29.7257 4.81099 29.7381 4.80451 29.7473C4.8023 29.7505 4.79739 29.7521 4.79286 29.7535C4.78407 29.7563 4.7767 29.7586 4.79329 29.7713L4.79042 29.7734ZM4.52303 29.8584C4.52003 29.8784 4.51928 29.8834 4.54544 29.8618C4.54717 29.8592 4.54831 29.8563 4.54876 29.8533C4.54922 29.8503 4.54898 29.8472 4.54807 29.8442L4.53562 29.8423C4.52482 29.8407 4.52413 29.8483 4.52365 29.8536C4.52358 29.8544 4.52351 29.8552 4.52341 29.8559L4.52303 29.8584ZM4.1079 29.8416L4.1354 29.879C4.15532 29.882 4.1603 29.8828 4.15371 29.8588C4.14815 29.8394 4.13759 29.8219 4.12312 29.808C4.12312 29.808 4.10418 29.8154 4.10903 29.8341L4.1079 29.8416ZM3.71038 29.9453C3.77502 29.9643 3.84401 29.9622 3.90737 29.9392C3.94885 29.9174 3.91337 29.8992 3.8896 29.8879C3.8795 29.8831 3.8704 29.89 3.86155 29.8967C3.84957 29.9058 3.83804 29.9146 3.82509 29.8935L3.87554 29.8627C3.7976 29.7741 3.77124 29.8248 3.735 29.8945C3.72775 29.9084 3.72004 29.9233 3.71151 29.9377L3.71038 29.9453ZM3.20717 29.6155C3.2084 29.6114 3.20903 29.6072 3.20904 29.603L3.20717 29.6155ZM3.00288 28.9392L2.99043 28.9373C2.97468 29.0425 2.97393 29.0475 3.0415 29.1064C3.06207 29.0711 3.04008 29.0479 3.01808 29.0247C2.99609 29.0015 2.97409 28.9784 2.99466 28.9431L3.00288 28.9392ZM2.99465 28.7561C2.98903 28.7937 2.9834 28.8312 3.03146 28.8334L3.03755 28.8337C3.04121 28.8339 3.04455 28.8341 3.0476 28.8343L3.05722 28.835C3.07961 28.8367 3.08049 28.8368 3.08638 28.8238C3.09399 28.807 3.07584 28.7582 3.04398 28.7329C3.01212 28.7075 2.99939 28.7415 2.99066 28.7658L2.99465 28.7561ZM3.13293 28.4621C3.08473 28.4778 3.07624 28.5175 3.07944 28.5641C3.10583 28.5398 3.12327 28.5072 3.12894 28.4717L3.13293 28.4621ZM3.23051 28.3206C3.22834 28.3192 3.22588 28.3182 3.22329 28.3178C3.22071 28.3174 3.21807 28.3176 3.21557 28.3184C3.21345 28.3231 3.21267 28.3283 3.21332 28.3334C3.21069 28.3509 3.22352 28.3503 3.23324 28.3364C3.23122 28.3341 3.22897 28.3321 3.22652 28.3303L3.23051 28.3206ZM3.39437 28.1278L3.3925 28.1403L3.40495 28.1422L3.39437 28.1278Z" fill="#E33529"/>
<path d="M57.637 32.9062L57.6973 32.9282L57.6952 32.9254L57.637 32.9062Z" fill="#E33529"/>
<path d="M75.8735 13.1021C75.5968 12.9005 74.9688 12.6137 74.6699 13.0794C74.2963 13.6614 76.5465 14.755 75.8735 13.1021Z" fill="#E33529"/>
<path d="M20.7954 28.9922L20.9025 29.0085C20.9263 29.0162 20.9496 29.0258 20.9721 29.0369L20.9154 29.0411L20.7954 28.9922Z" fill="#E33529"/>
</svg>
