<svg width="67" height="33" viewBox="0 0 67 33" fill="none" xmlns="http://www.w3.org/2000/svg">
<path d="M66.9967 9.9C66.9967 4.4418 62.4878 0 56.9472 0C52.579 0 48.854 2.7588 47.4705 6.6H19.5262C18.1427 2.7588 14.4177 0 10.0495 0C4.50887 0 0 4.4418 0 9.9C0 12.4344 0.971452 14.7477 2.56597 16.5C0.971452 18.2523 0 20.5656 0 23.1C0 28.5582 4.50887 33 10.0495 33C14.4177 33 18.1427 30.2412 19.5262 26.4H47.4738C48.8573 30.2412 52.5823 33 56.9505 33C62.4911 33 67 28.5582 67 23.1C67 20.5656 66.0285 18.2523 64.434 16.5C66.0252 14.7477 66.9967 12.4344 66.9967 9.9Z" fill="#F3F0EF"/>
</svg>
