<svg width="142" height="107" viewBox="0 0 142 107" fill="none" xmlns="http://www.w3.org/2000/svg">
<path d="M28.5781 23.0164V0.453125H38.2538C46.4684 0.453125 50.3646 4.70607 50.3646 11.7186C50.3646 18.731 46.4684 23.0164 38.2538 23.0164H28.5781ZM36.7278 17.0103H38.059C40.7215 17.0103 42.1825 15.5819 42.1825 11.7186C42.1825 7.88765 40.7215 6.45918 38.059 6.45918H36.7278V17.0103Z" fill="#E33529"/>
<path d="M63.2545 23.4723C56.3061 23.4723 51.728 18.8298 51.728 11.72C51.728 4.64252 56.3061 0 63.2545 0C70.2028 0 74.7809 4.64252 74.7809 11.72C74.7809 18.8298 70.2028 23.4723 63.2545 23.4723ZM63.2545 17.3364C65.4949 17.3364 66.6312 15.1288 66.6312 11.72C66.6312 8.34355 65.4949 6.13592 63.2545 6.13592C61.0141 6.13592 59.8778 8.34355 59.8778 11.72C59.8778 15.1288 61.0141 17.3364 63.2545 17.3364Z" fill="#E33529"/>
<path d="M76.1631 23.0164V0.453125H88.8584L92.365 21.5879L91.326 0.453125H99.0536V23.0164H86.3908L82.8841 1.8816L83.8907 23.0164H76.1631Z" fill="#E33529"/>
<path d="M100.089 12.5627L103.726 7.88764H100.447V0.453125H107.914V7.88764L104.245 12.5627H100.089Z" fill="#E33529"/>
<path d="M109.282 6.45918V0.453125H129.608V6.45918H123.536V23.0164H115.386V6.45918H109.282Z" fill="#E33529"/>
<path d="M28.5782 48.7742V26.2109H39.9031C45.9423 26.2109 48.4491 28.2887 48.4491 31.6001C48.4491 34.5545 46.436 36.0154 43.254 36.6646C46.6633 37.1517 49.1309 38.7749 49.1309 41.9565C49.1309 45.7874 46.4035 48.7742 39.2605 48.7742H28.5782ZM38.6435 31.8273H36.7278V35.3986H38.6435C39.8773 35.3986 40.5591 34.7167 40.5591 33.613C40.5591 32.5092 39.8773 31.8273 38.6435 31.8273ZM38.8058 39.1321H36.7278V43.1578H38.8058C40.1696 43.1578 40.9813 42.411 40.9813 41.1449C40.9813 39.8787 40.1696 39.1321 38.8058 39.1321Z" fill="#E33529"/>
<path d="M62.0076 49.2301C55.0592 49.2301 50.4811 44.5876 50.4811 37.4778C50.4811 30.4003 55.5071 25.7578 62.4555 25.7578C69.4037 25.7578 73.5339 30.4003 73.5339 37.4778C73.5339 44.5876 68.9558 49.2301 62.0076 49.2301ZM62.0076 43.0942C64.2479 43.0942 65.3843 40.8866 65.3843 37.4778C65.3843 34.1013 64.2479 31.8938 62.0076 31.8938C59.7672 31.8938 58.6308 34.1013 58.6308 37.4778C58.6308 40.8866 59.7672 43.0942 62.0076 43.0942Z" fill="#E33529"/>
<path d="M73.0273 48.7742L77.7287 26.2109H91.9825L95.7555 48.7742H87.4435L86.7941 44.4888H81.8589L81.242 48.7742H73.0273ZM84.7744 27.6718L82.703 38.8398H85.9824L84.7744 27.6718Z" fill="#E33529"/>
<path d="M110.01 48.7742L105.238 40.2359V48.7742H97.0881V26.2109H107.414C113.94 26.2109 117.446 28.6783 117.446 33.3208C117.446 36.3725 115.953 38.3529 112.966 39.3918L118.615 48.7742H110.01ZM107.023 31.9897H105.238V36.4375H107.023C108.614 36.4375 109.491 35.6258 109.491 34.2298C109.491 32.8013 108.614 31.9897 107.023 31.9897Z" fill="#E33529"/>
<path d="M119.929 48.7742V26.2109H129.604C137.819 26.2109 141.715 30.4638 141.715 37.4764C141.715 44.4888 137.819 48.7742 129.604 48.7742H119.929ZM128.078 42.7681H129.409C132.071 42.7681 133.533 41.3396 133.533 37.4764C133.533 33.6455 132.071 32.217 129.409 32.217H128.078V42.7681Z" fill="#E33529"/>
<path d="M28.5782 74.2664V51.7031H41.2734L43.4164 73.0003L45.5269 51.7031H58.2221V74.2664H50.592L51.1765 53.3913L48.8711 74.2664H37.9292L35.5589 53.3913L36.2084 74.2664H28.5782Z" fill="#E33529"/>
<path d="M59.5776 74.2664V51.7031H75.7471V57.4819H67.7274V60.144H74.7081V65.306H67.7274V68.4876H76.0069V74.2664H59.5776Z" fill="#E33529"/>
<path fill-rule="evenodd" clip-rule="evenodd" d="M82.5622 49.7609C82.6975 49.2334 82.9773 48.7541 83.3704 48.3771C83.4359 48.4426 83.4827 48.5004 83.5135 48.5575C83.6272 48.4216 83.7453 48.3035 83.8627 48.205C83.8586 48.2022 83.8566 48.1975 83.8578 48.1902C83.8635 48.1325 83.8876 48.0781 83.9267 48.0352C83.9374 48.0142 83.9553 47.9977 83.9771 47.9889C83.999 47.98 84.0233 47.9793 84.0456 47.9869C84.0471 48.0177 84.0421 48.0485 84.0307 48.077C84.3302 47.8715 84.6082 47.8033 84.7737 47.9021L84.7866 47.9128C84.8069 47.8281 84.9048 47.7942 85.0478 47.8398C85.1415 47.8654 85.2291 47.9096 85.3054 47.9696C85.5569 48.1925 85.8268 48.3936 86.1123 48.571L86.9694 49.1137C87.3899 49.3859 87.7949 49.6768 88.1996 49.9674C88.5963 50.2525 88.9929 50.5373 89.4032 50.8038C89.7043 51.0021 90.003 51.2037 90.3017 51.4053C91.078 51.9296 91.8546 52.4539 92.6748 52.918C93.0492 53.13 93.4203 53.3563 93.7926 53.5831C94.1327 53.7904 94.4738 53.9983 94.8191 54.1964C95.3794 54.5477 95.9599 54.8658 96.5575 55.149C96.7959 55.2494 97.0081 55.3961 97.2205 55.5428C97.4032 55.669 97.586 55.7954 97.7855 55.8924C98.5517 56.2748 99.2916 56.7048 100.033 57.1351C100.634 57.4849 101.236 57.8348 101.853 58.1595C102.312 58.3985 102.764 58.6514 103.213 58.908C103.815 58.9644 104.412 59.0661 104.999 59.2122C106.642 59.6603 108.176 60.4404 109.505 61.5041C110.102 61.9604 110.663 62.4599 111.187 62.9982C111.337 63.158 111.491 63.3326 111.638 63.5014L111.639 63.5019C111.74 63.618 111.84 63.7311 111.933 63.8345C112.146 64.088 112.373 64.3281 112.615 64.5535C113.084 65.0108 113.608 65.4079 114.174 65.7355C114.747 66.0722 115.349 66.3554 115.975 66.5816C116.228 66.6763 116.487 66.7453 116.753 66.8169C116.898 66.8554 117.045 66.8947 117.194 66.939C117.581 67.0379 117.952 67.1884 118.298 67.3864C118.795 67.6253 119.312 67.8209 119.843 67.9709C120.16 68.0376 120.453 68.1874 120.692 68.4047C120.18 68.3102 119.676 68.1776 119.185 68.008C118.28 67.723 117.392 67.4652 116.504 67.2444C116.386 67.2254 116.268 67.2131 116.149 67.2075C116.509 67.3427 116.854 67.4472 117.186 67.5475C117.6 67.6725 117.993 67.7912 118.365 67.9549C118.333 68.0333 118.297 68.0956 118.25 68.1434C118.495 68.2138 118.739 68.2851 118.981 68.3596C118.982 68.3552 118.985 68.351 118.991 68.3475C119.071 68.3275 119.153 68.3245 119.233 68.3383C119.266 68.3388 119.298 68.3466 119.327 68.361C119.356 68.3755 119.382 68.3962 119.403 68.4218C119.367 68.4402 119.329 68.4523 119.29 68.4574C119.698 68.5899 120.098 68.7347 120.488 68.9038L120.504 68.9107L120.514 68.9151C120.485 68.8081 120.589 68.7599 120.835 68.8276C121 68.8684 121.152 68.9481 121.28 69.06C121.395 69.1683 121.497 69.2892 121.585 69.4203C121.627 69.4907 121.662 69.5638 121.693 69.6392C121.732 69.7112 121.758 69.7893 121.769 69.87C121.835 70.1782 121.818 70.4978 121.721 70.7974C121.519 71.3426 121.209 71.8415 120.809 72.2648C120.275 72.8728 119.639 73.3817 118.929 73.7683C118.207 74.1054 117.451 74.3645 116.674 74.5412C115.679 74.7798 114.67 74.9567 113.653 75.0705C113.218 75.1259 112.782 75.1758 112.346 75.2259C111.767 75.2922 111.186 75.3586 110.604 75.4383C109.837 75.5278 109.06 75.5877 108.283 75.6476C107.757 75.6882 107.232 75.7287 106.71 75.7782C106.526 75.7983 106.34 75.8131 106.152 75.8277C105.821 75.8539 105.489 75.88 105.177 75.936C105.148 75.9413 105.12 75.9463 105.091 75.9513C104.997 75.9681 104.902 75.9848 104.81 76.0091L104.466 76.1476C104.454 76.1525 104.443 76.1573 104.432 76.162L104.419 76.1673C104.377 76.184 104.337 76.2005 104.298 76.2215L104.142 76.322C104.117 76.3385 104.093 76.3548 104.068 76.3713C103.991 76.4224 103.912 76.4739 103.838 76.5286C103.261 76.9635 102.779 77.5115 102.421 78.139C102.034 78.9125 101.739 79.7287 101.542 80.5709C101.444 80.9948 101.356 81.4198 101.296 81.8491L101.246 82.1726L101.206 82.5801C101.178 82.7657 101.171 82.9526 101.164 83.1401C101.161 83.2263 101.158 83.3128 101.153 83.3993C100.897 83.3608 100.626 83.2943 100.357 83.2278C100.221 83.1946 100.086 83.1613 99.9524 83.1316C99.7047 83.0942 99.4709 83.0238 99.2371 82.9536C99.1507 82.9275 99.0644 82.9014 98.9774 82.8772C97.18 82.3422 95.4544 81.5906 93.8385 80.6389C92.7838 80.0625 91.7656 79.4215 90.7898 78.7196C89.9502 78.0885 89.1235 77.4263 88.3439 76.7258C87.6713 76.1232 87.0346 75.4818 86.437 74.8047L85.8706 74.1445L85.8356 74.102L85.8672 74.0572L86.067 73.8019L86.3346 73.4533L86.7454 72.8949L87.133 72.3535C87.2804 72.1441 87.448 71.9377 87.6149 71.7354C88.6245 70.4847 89.6679 69.259 90.7098 68.0352C91.09 67.5885 91.4705 67.1416 91.8485 66.6944C92.4571 65.9718 93.0815 65.2629 93.7215 64.5685C92.2122 64.9111 90.6854 65.1714 89.1478 65.3486L88.5162 65.423C88.382 65.4371 88.2498 65.438 88.1143 65.4389C88.0377 65.4395 87.9601 65.44 87.8804 65.443L86.633 65.4867C85.6964 65.4905 84.7604 65.4447 83.8287 65.3497C82.7521 65.2793 81.6897 65.0664 80.669 64.7165C79.7077 64.4113 78.8085 63.9369 78.0138 63.3156C77.604 62.9714 77.2465 62.5693 76.9528 62.1217C76.6568 61.6512 76.4548 61.1278 76.3579 60.5804C76.2774 60.2424 76.2365 59.8962 76.2361 59.5488C76.2374 59.2271 76.3308 58.9124 76.505 58.6422C76.6086 58.502 76.6877 58.3427 76.7708 58.1755C76.8798 57.9565 76.9955 57.7238 77.1812 57.5032C77.2863 57.3808 77.4083 57.2737 77.5434 57.1855C77.637 57.1283 77.7412 57.0906 77.8497 57.0744C77.9876 57.0568 78.1276 57.0779 78.2541 57.1353C78.1476 57.1432 78.0423 57.1619 77.9396 57.1914C77.8635 57.2296 77.7915 57.2684 77.7229 57.3118C77.6249 57.3875 77.5355 57.4739 77.4566 57.5695C77.329 57.7211 77.2182 57.886 77.1261 58.0615C76.7949 58.6495 76.6622 59.3286 76.7475 59.998C76.7626 60.0388 76.7802 60.0787 76.7998 60.1176C76.7274 59.5785 76.81 59.03 77.038 58.5363C77.1132 58.5671 77.1728 58.5981 77.2201 58.6329C77.2721 58.4692 77.3343 58.3196 77.4029 58.1874C77.3946 58.1883 77.3873 58.1849 77.382 58.1752C77.3696 58.1194 77.3712 58.0614 77.3868 58.0063C77.3905 57.984 77.4014 57.9634 77.4179 57.9479C77.4344 57.9325 77.4557 57.923 77.4782 57.9209C77.4938 57.9507 77.5015 57.9839 77.5007 58.0175C77.6987 57.7076 77.9306 57.5333 78.1228 57.5584C78.1347 57.4909 78.2097 57.4394 78.3381 57.4293C78.4339 57.417 78.5313 57.4233 78.6248 57.4476C78.9415 57.5614 79.2684 57.6438 79.601 57.6939L80.6009 57.8653C81.116 57.9561 81.6256 58.0763 82.1352 58.1964C82.5862 58.3028 83.0373 58.4092 83.4922 58.4952C83.8563 58.5642 84.2192 58.6378 84.5823 58.7114C85.4905 58.8955 86.3991 59.0797 87.3247 59.1925C87.8662 59.2603 88.4174 59.3479 88.9682 59.4354C89.2433 59.4792 89.5182 59.5229 89.7918 59.5641C90.445 59.6722 91.104 59.7439 91.7653 59.7787C92.028 59.7775 92.2833 59.8322 92.5399 59.8871C92.7525 59.9326 92.9659 59.9783 93.1848 59.9925C94.0241 60.0494 94.8576 60.1602 95.6915 60.271C96.3955 60.3646 97.0999 60.4582 97.8081 60.5194L97.864 60.5244L97.8669 60.5221C97.4731 60.455 97.0784 60.3898 96.6834 60.3256C95.1103 60.0619 93.5533 59.71 92.0196 59.2715L91.4044 59.1002C91.2837 59.0647 91.1677 59.0181 91.0503 58.9711C90.9711 58.9393 90.8914 58.9072 90.8091 58.8782L89.6354 58.4325C88.7695 58.0748 87.9232 57.6711 87.1002 57.2234C86.1296 56.7472 85.2274 56.1424 84.418 55.4255C83.6461 54.778 82.9975 53.9966 82.5031 53.1187C82.2539 52.6436 82.0756 52.1346 81.9737 51.6079C81.8779 51.061 81.8864 50.5009 81.9991 49.9573C82.054 49.6139 82.1503 49.2785 82.286 48.9583C82.4073 48.6591 82.6143 48.4025 82.881 48.2207C83.2195 47.9381 83.5727 47.6738 83.9393 47.4288C84.0834 47.3541 84.2378 47.3007 84.3974 47.2703C84.4983 47.2442 84.6032 47.2362 84.7071 47.2467C84.8361 47.282 84.954 47.3496 85.0497 47.443C84.9457 47.4133 84.8383 47.3971 84.7302 47.3949C84.6495 47.3999 84.5693 47.4099 84.4899 47.4249C84.3697 47.4566 84.2533 47.5015 84.143 47.5587C83.9663 47.6548 83.7996 47.7683 83.6453 47.8974C83.1209 48.3156 82.7443 48.8909 82.5708 49.5388C82.5602 49.6124 82.5574 49.6868 82.5622 49.7609ZM90.6093 58.2725C90.5755 58.2584 90.5417 58.2444 90.5082 58.2303C90.4871 58.2343 90.4668 58.2419 90.4483 58.2531C90.4211 58.2696 90.4254 58.2951 90.46 58.3127L90.4479 58.311C90.5095 58.3409 90.5692 58.3292 90.5983 58.3005C90.6039 58.292 90.6076 58.2825 90.6093 58.2725ZM96.9772 59.9742C96.9101 59.9616 96.8428 59.9489 96.7751 59.936C96.7948 59.9812 96.8372 60.01 96.9417 59.984C96.9545 59.9809 96.9663 59.9776 96.9772 59.9742ZM104.124 59.4304L104.207 59.4771C104.22 59.4779 104.235 59.4809 104.251 59.4836C104.291 59.491 104.326 59.4972 104.279 59.4595C104.242 59.4418 104.203 59.4318 104.161 59.4299C104.149 59.4293 104.136 59.4295 104.124 59.4304ZM91.8387 58.7975L91.8468 58.7988C91.875 58.803 91.9043 58.8115 91.9338 58.8201C91.9933 58.8373 92.0533 58.8548 92.1056 58.8377C92.0232 58.7963 91.9298 58.7822 91.8387 58.7975ZM88.7056 57.4942L88.6952 57.5629C88.7131 57.5866 88.7377 57.6043 88.7658 57.6137C88.794 57.6231 88.8242 57.6238 88.8527 57.6157C88.885 57.6205 88.883 57.5789 88.8618 57.555C88.8182 57.5176 88.7631 57.4962 88.7056 57.4942ZM88.3289 57.3589C88.326 57.3577 88.3206 57.3544 88.314 57.3502C88.2862 57.3331 88.235 57.3013 88.2318 57.3443L88.3289 57.3589ZM87.6437 57.0199C87.6626 57.0599 87.7481 57.0688 87.7974 57.0431C87.8195 57.0316 87.8444 57.0502 87.8703 57.0697C87.9025 57.0937 87.9364 57.1191 87.9683 57.0895L87.7952 57.0303C87.7673 57.0242 87.7388 57.0199 87.7103 57.0175C87.6938 57.0183 87.6735 57.0094 87.6565 57.002C87.6309 56.9907 87.6128 56.9829 87.6276 57.0174L87.6437 57.0199ZM86.9664 56.6573C86.9384 56.6779 86.9596 56.7018 86.9913 56.7107C86.9939 56.711 86.9965 56.7109 86.999 56.7106C87.0025 56.7101 87.0061 56.709 87.0094 56.7073C87.0119 56.706 87.0143 56.7044 87.0165 56.7024C87.019 56.7002 87.021 56.6976 87.0227 56.6948L87.027 56.6664L86.9664 56.6573ZM86.1024 55.9398C86.0949 55.9731 86.0899 56.0069 86.0872 56.041C86.1233 56.0754 86.1476 56.079 86.1478 56.0501C86.1609 56.0152 86.1665 55.9781 86.1643 55.9409C86.1443 55.9089 86.1073 55.9075 86.1024 55.9398ZM85.1831 55.5078C85.2977 55.6163 85.4324 55.7013 85.5797 55.7577C85.6692 55.7712 85.6396 55.7279 85.6114 55.6869L85.6046 55.6768L85.6009 55.6712C85.5985 55.6677 85.5964 55.6641 85.5944 55.6606C85.5836 55.642 85.562 55.6399 85.5388 55.6377C85.5057 55.6345 85.4695 55.631 85.458 55.5781L85.5873 55.5975C85.4495 55.3463 85.3524 55.4054 85.2317 55.4789C85.2159 55.4885 85.1999 55.4983 85.1831 55.5078ZM84.129 54.4886L84.1572 54.4928L84.1609 54.4687L84.129 54.4886ZM83.1182 53.1535L83.114 53.1818C83.2113 53.4106 83.2157 53.4121 83.4012 53.4809L83.4038 53.4819C83.3826 53.3934 83.3215 53.3648 83.2614 53.3364C83.1989 53.307 83.1372 53.278 83.1221 53.183L83.1182 53.1535ZM82.856 52.8079C82.8842 52.8949 82.9258 52.9756 83.0015 52.9125C83.027 52.8913 83.0436 52.8819 83.0536 52.8762C83.0608 52.8722 83.0645 52.8701 83.0657 52.8669C83.067 52.8635 83.0651 52.8587 83.061 52.8487C83.0586 52.8429 83.0555 52.8352 83.0519 52.825C83.0409 52.7891 83.0188 52.7577 82.9886 52.7353C82.9585 52.7129 82.9221 52.7007 82.8845 52.7005C82.8382 52.7059 82.835 52.7551 82.856 52.8079ZM82.5563 52.0514C82.5502 52.1499 82.5831 52.247 82.6479 52.3216C82.6559 52.2269 82.6307 52.1325 82.5765 52.0544L82.5563 52.0514ZM82.4595 51.6232C82.4558 51.6349 82.4539 51.6472 82.454 51.6595C82.454 51.6595 82.4486 51.696 82.4675 51.7071C82.4865 51.7183 82.4999 51.7119 82.4736 51.6667C82.479 51.6511 82.4815 51.6347 82.481 51.6181L82.4595 51.6232ZM94.03 64.0739C94.0498 64.0599 94.0661 64.0469 94.0795 64.0346L93.9935 64.0527L93.9281 64.0664L93.8466 64.0833C93.8827 64.1242 93.9344 64.1423 94.03 64.0739ZM87.4965 64.9062H87.456L87.408 64.906C87.4027 64.9082 87.3974 64.9107 87.3923 64.9133C87.368 64.9263 87.3472 64.9449 87.3316 64.9674C87.3177 64.9778 87.3249 65.0119 87.3653 65.018C87.4341 65.0284 87.4875 65.0033 87.4995 64.9513C87.5048 64.9282 87.5022 64.9144 87.4965 64.9062ZM91.8481 67.2632C91.9303 67.1696 92.0125 67.0761 92.0948 66.9829C92.0293 66.9804 91.9592 67.01 91.8802 67.1707C91.8645 67.2046 91.8537 67.2359 91.8481 67.2632ZM105.451 59.7807C105.479 59.7601 105.458 59.7362 105.39 59.7259C105.382 59.7248 105.374 59.7261 105.367 59.7294C105.359 59.7328 105.353 59.738 105.349 59.7447C105.349 59.7447 105.378 59.7489 105.386 59.7791C105.394 59.8093 105.442 59.7877 105.451 59.7807ZM106.973 60.6056C106.964 60.565 106.951 60.5256 106.933 60.4879C106.869 60.4452 106.837 60.4403 106.848 60.4751C106.856 60.5205 106.875 60.5632 106.903 60.5993C106.93 60.6406 106.981 60.6398 106.973 60.6056ZM107.775 60.8836C108.003 60.9633 108.217 61.0816 108.405 61.2331C108.394 61.2394 108.383 61.2455 108.371 61.2517C108.232 61.327 108.132 61.3811 107.826 61.0691L108.016 61.0977C107.992 61.065 107.961 61.039 107.924 61.0218C107.887 61.0048 107.848 60.9972 107.807 61.0001C107.797 60.9923 107.787 60.9842 107.777 60.976C107.707 60.9205 107.634 60.8623 107.775 60.8836ZM110.171 62.688L110.13 62.657L110.157 62.6983L110.171 62.688ZM110.675 63.1279L110.595 63.1158L110.636 63.1427L110.675 63.1279ZM111.892 64.581L111.897 64.5486C111.882 64.5283 111.868 64.5093 111.855 64.4917C111.866 64.5069 111.876 64.5237 111.885 64.5427L111.892 64.581ZM111.654 64.2573C111.711 64.2998 111.757 64.3577 111.846 64.4789C111.794 64.4112 111.73 64.3808 111.666 64.3502C111.583 64.3106 111.498 64.2706 111.44 64.1489L111.451 64.1538C111.548 64.1966 111.605 64.2214 111.654 64.2573ZM112.374 64.9762C112.285 64.876 112.195 64.788 112.149 64.8761C112.132 64.9085 112.118 64.9224 112.11 64.9306C112.105 64.935 112.102 64.9379 112.101 64.9412C112.101 64.9441 112.102 64.9472 112.105 64.9523C112.106 64.9542 112.108 64.9563 112.109 64.9587L112.111 64.9612L112.115 64.9667L112.125 64.9793L112.132 64.9893C112.162 65.0301 112.202 65.0623 112.248 65.0831C112.294 65.1038 112.346 65.1122 112.395 65.1076C112.459 65.0757 112.432 65.0305 112.395 64.9752L112.374 64.9762ZM113.232 65.7163C113.145 65.6117 113.035 65.5279 112.911 65.4707C112.993 65.5823 113.103 65.6677 113.232 65.7163ZM113.749 66.0851C113.744 66.0702 113.735 66.0574 113.722 66.0478C113.707 66.0309 113.687 66.018 113.666 66.0104L113.657 66.0092C113.652 66.0085 113.649 66.008 113.645 66.0077C113.641 66.0073 113.638 66.0076 113.637 66.0089C113.637 66.0119 113.645 66.0201 113.666 66.038L113.667 66.0384C113.674 66.0445 113.682 66.0515 113.691 66.0597L113.749 66.0851ZM114.571 66.5356L114.522 66.5283L114.555 66.558L114.571 66.5356ZM88.8514 64.9275C88.8835 64.9099 88.9217 64.9047 88.9596 64.8996C89.0123 64.8925 89.0646 64.8854 89.0996 64.845C89.0068 64.8403 88.9152 64.8674 88.8398 64.9217L88.8272 64.9239L88.8514 64.9275ZM85.4127 64.9389C85.4127 64.9389 85.4308 64.983 85.4539 64.9948C85.4782 65.0112 85.5073 65.0193 85.5366 65.0178C85.5659 65.0162 85.594 65.0051 85.6165 64.9862C85.645 64.9615 85.6232 64.9417 85.5914 64.9328C85.5361 64.9068 85.473 64.9032 85.4151 64.9228L85.4127 64.9389ZM84.9357 64.9746L85.0153 64.9411L85.1144 64.9146L85.0078 64.9358C85.0047 64.9363 84.998 64.9349 84.9898 64.9331C84.9645 64.9275 84.9253 64.919 84.9382 64.9584L84.9357 64.9746ZM84.2514 64.9046C84.2842 64.9344 84.3647 64.9217 84.4091 64.8746C84.4154 64.8678 84.4228 64.864 84.431 64.8622L84.3981 64.8647L84.313 64.8808C84.313 64.8808 84.2068 64.8441 84.2539 64.8885L84.2514 64.9046ZM84.4904 64.8703C84.4752 64.866 84.4601 64.8617 84.4462 64.8611L84.5821 64.851C84.5627 64.8907 84.5266 64.8805 84.4904 64.8703ZM83.4851 64.8305C83.4808 64.8589 83.479 64.8709 83.5293 64.8662C83.5349 64.8656 83.5396 64.8652 83.5433 64.8649L83.5485 64.8645C83.5559 64.864 83.5586 64.8638 83.5589 64.8629C83.559 64.8623 83.5586 64.8616 83.5578 64.8605C83.5558 64.8577 83.5521 64.8521 83.5539 64.8409C83.5559 64.8268 83.5559 64.8268 83.5519 64.8297C83.5478 64.8327 83.5397 64.8387 83.5255 64.8366C83.5087 64.8341 83.5003 64.8241 83.4951 64.8179L83.4939 64.8165C83.4925 64.8148 83.4913 64.8136 83.4903 64.8132C83.4899 64.813 83.4895 64.8129 83.4891 64.8131C83.4885 64.8132 83.488 64.8136 83.4875 64.8144L83.4851 64.8305ZM82.4332 64.4818C82.4303 64.5019 82.4415 64.5224 82.4523 64.5423C82.4589 64.5546 82.4654 64.5667 82.4684 64.5781C82.4762 64.6082 82.5372 64.5885 82.5293 64.5584C82.5207 64.5205 82.5034 64.4854 82.4786 64.4555C82.4574 64.4317 82.4266 64.4436 82.4339 64.4778L82.4332 64.4818ZM81.4191 64.4324C81.5669 64.4849 81.7235 64.5084 81.8802 64.5019C81.9816 64.4866 81.9047 64.441 81.8564 64.4124L81.845 64.4056C81.8266 64.3945 81.8063 64.4006 81.7852 64.4071C81.7542 64.4165 81.7217 64.4264 81.6914 64.3825L81.8188 64.3603C81.6022 64.1703 81.5333 64.2681 81.4523 64.3832C81.4418 64.3982 81.431 64.4134 81.4197 64.4284L81.4191 64.4324ZM80.0322 63.8926L80.0645 63.8975L80.0433 63.8737L80.0322 63.8926ZM78.9737 63.243C78.7991 63.2479 78.7731 63.2487 78.6499 63.1266C78.6958 63.1574 78.7469 63.1601 78.7973 63.1628C78.8655 63.1665 78.9326 63.17 78.9844 63.2426L78.9737 63.243ZM78.22 62.8256C78.2837 62.8972 78.3498 62.9526 78.3979 62.8523C78.4169 62.813 78.4303 62.797 78.437 62.7892C78.4387 62.7872 78.4399 62.7857 78.4406 62.7845C78.4413 62.7836 78.4416 62.7827 78.4415 62.782C78.4413 62.7803 78.4395 62.7789 78.4357 62.776C78.431 62.7724 78.4234 62.7665 78.4126 62.7553C78.3892 62.7255 78.3569 62.704 78.3205 62.6941C78.2839 62.6841 78.2452 62.6862 78.21 62.6999C78.179 62.7408 78.1937 62.7802 78.234 62.8153L78.22 62.8256ZM77.6762 62.2349C77.6909 62.2825 77.7155 62.3267 77.7483 62.3644C77.7811 62.4021 77.8213 62.4325 77.8665 62.4538C77.8341 62.3621 77.7715 62.2841 77.6889 62.2327L77.6762 62.2349ZM77.4204 61.8738C77.4147 61.8836 77.413 61.8951 77.4155 61.9061C77.4155 61.9061 77.4107 61.9385 77.4424 61.9474C77.4741 61.9563 77.4748 61.9522 77.4491 61.9029C77.4366 61.8789 77.4355 61.8703 77.4362 61.8676C77.4356 61.8676 77.4348 61.8676 77.4337 61.8675L77.4204 61.8738ZM104.127 66.0851C103.809 65.855 103.089 65.5277 102.746 66.0591C102.317 66.7235 104.9 67.9717 104.127 66.0851Z" fill="#E33529"/>
<path d="M105.524 100.236L105.531 100.188C105.528 100.204 105.525 100.22 105.524 100.236Z" fill="#E33529"/>
<path d="M35.5178 94.1422L35.6958 94.169C35.6903 94.1682 35.6444 94.142 35.5964 94.1148C35.574 94.102 35.5511 94.0889 35.5317 94.0781C35.5236 94.0863 35.5179 94.0968 35.5154 94.1081C35.5131 94.1195 35.5139 94.1313 35.5178 94.1422Z" fill="#E33529"/>
<path fill-rule="evenodd" clip-rule="evenodd" d="M106.435 100.947C106.281 100.836 106.125 100.729 105.966 100.626C106.072 100.623 106.175 100.538 106.265 100.392C106.345 100.69 106.496 100.865 106.758 100.694C106.833 100.755 106.908 100.719 106.984 100.682C107.059 100.645 107.135 100.608 107.213 100.667C107.216 100.674 107.218 100.682 107.22 100.689C107.241 100.752 107.266 100.826 107.327 100.813C107.502 100.781 107.679 100.762 107.857 100.756C107.956 100.739 108.057 100.735 108.157 100.744C108.298 100.774 108.403 100.658 108.504 100.548C108.53 100.52 108.557 100.49 108.584 100.464C108.797 100.803 108.812 100.813 109.044 100.534C109.163 100.787 109.332 100.825 109.486 100.621C109.55 100.533 109.618 100.447 109.69 100.366C109.686 100.342 109.681 100.32 109.672 100.298H109.676C109.685 100.313 109.692 100.329 109.697 100.346L109.693 100.371C109.723 100.616 109.748 100.64 109.904 100.564C110.046 100.513 110.166 100.414 110.244 100.285C110.427 100.383 110.42 100.216 110.417 100.136C110.417 100.129 110.416 100.124 110.416 100.119V100.115C110.416 100.112 110.416 100.109 110.416 100.107C110.416 100.104 110.417 100.102 110.417 100.1C110.421 100.087 110.429 100.075 110.436 100.063C110.448 100.046 110.46 100.027 110.465 99.9995C110.47 100.02 110.473 100.042 110.477 100.064C110.494 100.169 110.511 100.269 110.64 100.183C110.744 100.134 110.854 100.1 110.965 100.079C111.023 100.058 111.073 100.023 111.113 99.9777C111.154 99.9331 111.181 99.8786 111.195 99.8192C111.205 99.7796 111.27 99.736 111.318 99.7181C111.365 99.7023 111.405 99.6726 111.435 99.6339C111.465 99.5953 111.484 99.5487 111.488 99.4992C111.502 99.4169 111.527 99.3357 111.561 99.2584C111.606 99.299 111.59 99.3397 111.575 99.3773C111.56 99.4169 111.547 99.4526 111.607 99.4804C111.722 99.5348 111.745 99.3813 111.755 99.3169C111.76 99.2802 111.758 99.2416 111.756 99.2039C111.755 99.1742 111.753 99.1455 111.756 99.1177C111.761 99.0569 111.829 99.0673 111.89 99.0761C111.939 99.0259 111.981 98.9701 111.959 98.8965C111.904 98.7083 111.976 98.5724 112.051 98.4314C112.121 98.3 112.193 98.164 112.167 97.9767C112.164 97.9721 112.196 97.952 112.196 97.952C112.282 97.8243 112.32 97.6703 112.303 97.5173C112.302 97.4455 112.287 97.3745 112.26 97.3082C112.238 97.2376 112.205 97.1712 112.161 97.1113C112.068 96.9984 111.947 96.9119 111.811 96.8599C111.74 96.8225 111.659 96.8102 111.58 96.8252C111.494 96.8331 111.408 96.8492 111.324 96.8736C111.251 96.9029 111.172 96.9152 111.091 96.9098C111.012 96.9042 110.936 96.881 110.866 96.8417C110.86 96.8388 110.853 96.8456 110.843 96.8537C110.833 96.8621 110.821 96.872 110.808 96.8743C110.782 96.8787 110.484 96.9621 110.484 96.9621C110.236 96.9368 110.235 96.9409 110.17 97.1901L110.166 97.2037C110.156 97.107 110.103 97.0204 110.03 97.0384C109.862 97.0391 109.696 97.0778 109.546 97.1515C109.395 97.2624 109.335 97.3442 109.336 97.4995C109.245 97.5212 109.151 97.5435 109.054 97.5663C109.044 97.5483 109.014 97.5459 108.997 97.553C108.975 97.5605 108.955 97.5747 108.94 97.5934C108.793 97.6285 108.639 97.6647 108.479 97.7021L108.467 97.7046C108.467 97.6986 108.466 97.6925 108.465 97.6864C108.459 97.6527 108.444 97.6214 108.421 97.5957C108.398 97.5699 108.37 97.5508 108.337 97.5403C108.286 97.5141 108.229 97.4972 108.171 97.4904C108.085 97.4859 108 97.473 107.916 97.4521L107.672 97.3408L107.44 97.2355C107.363 97.1916 107.283 97.1547 107.201 97.125L106.974 97.0371L106.748 96.9162C106.644 96.8592 106.537 96.8102 106.428 96.7602L106.387 96.7414L106.363 96.7303L106.339 96.719C106.325 96.7125 106.311 96.706 106.296 96.6993C105.902 96.5393 105.532 96.3248 105.197 96.0622C105.092 95.9719 104.975 95.896 104.851 95.8363C104.59 95.6982 104.336 95.5455 104.093 95.3788C103.973 95.286 103.848 95.2008 103.717 95.1238C103.554 95.0573 103.403 94.9632 103.271 94.8457C103.03 94.6519 102.799 94.4458 102.578 94.2283C102.561 94.2048 102.538 94.1851 102.512 94.1706C102.488 94.156 102.459 94.147 102.429 94.1439C102.301 94.142 102.218 94.0701 102.134 93.9973C102.058 93.9318 101.981 93.8655 101.87 93.8488C101.868 93.8488 101.865 93.8486 101.863 93.8482L101.861 93.8479L101.859 93.8473C101.857 93.8469 101.856 93.8464 101.855 93.8459C101.851 93.8445 101.848 93.8427 101.845 93.8405C101.837 93.8348 101.832 93.8268 101.83 93.8178C101.805 93.6786 101.694 93.593 101.601 93.5206C101.549 93.4802 101.502 93.4441 101.478 93.405C101.449 93.357 101.385 93.3349 101.323 93.3132C101.242 93.2855 101.164 93.2587 101.164 93.1799C101.164 93.1119 101.115 93.0828 101.067 93.055L101.066 93.0547C101.059 93.0504 101.052 93.0463 101.045 93.0419C100.999 93.0185 100.961 92.9805 100.939 92.9337C100.917 92.887 100.911 92.8342 100.922 92.7836C100.899 92.757 100.869 92.7357 100.836 92.721C100.679 92.7533 100.555 92.6115 100.428 92.4662C100.376 92.408 100.326 92.3492 100.271 92.3008C100.257 92.2614 100.242 92.2509 100.237 92.2583C100.231 92.2659 100.25 92.3059 100.25 92.3059C100.101 92.2304 99.9752 92.1157 99.886 91.974C99.8444 91.9008 99.7969 91.8306 99.7464 91.764C99.7275 91.5391 99.7166 91.3135 99.7127 91.0881C99.7236 91.0669 99.7295 90.9819 99.7374 90.878C99.7434 90.7825 99.7513 90.6709 99.7652 90.5784C99.783 90.3288 99.781 90.0782 99.7592 89.8292C99.9088 88.1169 100.383 86.5393 100.791 85.5837C100.766 85.5778 100.74 85.5718 100.715 85.5658C100.614 85.4944 100.365 85.3861 99.9643 85.2479C99.5185 85.1063 98.9845 84.9182 98.4827 84.7352C95.2415 83.5096 92.1913 81.8287 89.424 79.7432C88.729 79.2497 88.0691 78.716 87.4231 78.172C87.1007 77.896 86.783 77.6165 86.4746 77.3302L86.0146 76.8969L85.4537 76.3367L84.6761 75.5413L84.5797 75.4399C84.5738 75.434 84.5671 75.426 84.5601 75.4174C84.5324 75.384 84.4991 75.3436 84.4903 75.4017L84.3349 75.6098L84.0274 76.0309C83.9815 76.0946 83.9344 76.1604 83.8869 76.2269C83.7283 76.4485 83.5636 76.6785 83.4172 76.8696L82.9956 77.3066C82.4268 77.8963 81.7929 78.4197 81.1062 78.8666C80.8948 79.0124 80.6746 79.145 80.4467 79.2636C80.3657 79.3079 80.2854 79.3538 80.2052 79.3999C80.0621 79.4821 79.9187 79.5643 79.7699 79.6373L79.0701 79.9454L78.7183 80.1117L78.354 80.2512C78.3077 80.2689 78.2615 80.2867 78.2154 80.3045C77.7747 80.4743 77.3349 80.6437 76.8774 80.7732L76.1306 81.0081L75.365 81.203C73.3148 81.7031 71.2252 82.0249 69.1195 82.1648C68.755 82.1957 68.381 82.2122 68.0025 82.229C67.7067 82.2421 67.4081 82.2552 67.1093 82.2755L65.0647 82.3397C62.1584 82.4089 59.2509 82.2818 56.3618 81.9594C55.4166 81.8444 54.491 81.6961 53.5454 81.5445C53.0651 81.4674 52.5788 81.3895 52.083 81.3148C50.4063 81.0572 48.7485 80.6887 47.1206 80.2115C45.7168 79.8089 44.3543 79.2741 43.0515 78.6142L42.5895 78.3585L42.088 78.0637C42.0764 78.0572 42.0649 78.0506 42.0534 78.044C42.041 78.0369 42.0285 78.0297 42.016 78.0226L41.968 77.995L41.8591 77.9322C41.6001 77.783 41.3401 77.6333 41.0731 77.4973C40.3975 77.1225 39.7043 76.7823 39.0098 76.4502L38.9227 76.4104C38.7015 76.3092 38.4585 76.198 38.2103 76.1023C37.9288 75.9938 37.6617 75.8997 37.4482 75.8344C37.1412 75.741 36.8253 75.642 36.503 75.541C34.8774 75.0315 33.089 74.4711 31.4732 74.314C31.2939 74.2973 31.1157 74.2705 30.9393 74.2336C30.5296 74.1328 30.1135 74.0605 29.6939 74.017C29.592 74.0036 29.489 73.9971 29.385 73.9907C29.2659 73.9832 29.1456 73.9757 29.0246 73.9575L28.6834 73.9433L28.6309 73.9355L28.2563 73.6763C28.194 73.6309 28.1304 73.5868 28.0669 73.543C27.9557 73.4661 27.8445 73.3891 27.7414 73.3052C27.651 73.2311 27.5598 73.1587 27.4689 73.0867C27.2305 72.8977 26.994 72.7104 26.7834 72.499C26.672 72.3992 26.554 72.2947 26.4319 72.1865C25.6235 71.4699 24.6386 70.597 24.2485 69.9416C24.0847 69.6505 23.857 69.3499 23.6293 69.0493C23.5035 68.883 23.3776 68.7169 23.2626 68.5523C22.9808 68.215 22.7763 67.8198 22.6635 67.395L22.555 67.209C22.5166 67.1317 22.4725 67.0573 22.4231 66.9865C21.8154 66.2704 21.33 64.9896 20.9335 63.8876C20.9314 63.7981 20.9045 63.711 20.8556 63.6359C20.8581 63.6791 20.8656 63.7219 20.8778 63.7634C20.5454 62.9728 20.3007 62.1482 20.1481 61.3042C19.8409 59.5586 19.6881 57.9324 19.5365 56.3193C19.5187 56.1304 19.501 55.9415 19.483 55.7527C19.4447 55.4074 19.4418 55.0592 19.4742 54.7132C19.5346 54.3118 19.5727 53.862 19.6097 53.4262C19.652 52.9269 19.6927 52.4459 19.7638 52.0768C19.824 51.7655 19.8806 51.4989 19.9316 51.2579C20.0388 50.7524 20.1221 50.3594 20.1656 49.9038L18.9035 49.5234L18.8925 49.5963C18.8878 49.6469 18.8063 49.8864 18.7301 50.1103C18.702 50.1929 18.6744 50.2737 18.6519 50.3417C18.581 50.5547 18.5121 50.7637 18.4442 50.9695C18.3965 51.1137 18.3495 51.2563 18.3027 51.3975C18.1853 51.7353 18.0892 52.0799 18.0149 52.4296C17.9698 52.6439 17.9189 52.8553 17.8677 53.0677C17.7531 53.5429 17.6373 54.0234 17.5833 54.5525C17.5611 54.7703 17.5356 54.9903 17.5096 55.2141C17.4441 55.777 17.376 56.3636 17.3513 56.9992C17.3123 57.9991 17.3383 59.0006 17.4291 59.9972C17.438 60.1349 17.4379 60.273 17.4289 60.4107C17.3268 61.1339 17.3957 61.8709 17.6299 62.5628C17.8451 64.6267 18.4372 66.6337 19.3768 68.4839C19.3808 68.4928 19.3901 68.551 19.3999 68.6116C19.4048 68.6428 19.4099 68.6746 19.4144 68.7006L19.3902 68.6687C19.3558 68.6231 19.338 68.5997 19.3356 68.6011C19.333 68.6027 19.3479 68.6326 19.3788 68.6947C19.4016 68.7407 19.4333 68.8045 19.4732 68.8873C19.5164 68.9772 19.5593 69.0679 19.6022 69.1586C19.7124 69.3917 19.8234 69.6263 19.9436 69.8556L20.4686 70.7909C20.6359 71.2111 20.8792 71.5968 21.1864 71.9288C21.2656 72.0233 21.3396 72.1278 21.4146 72.2338C21.4526 72.2873 21.4907 72.3412 21.5298 72.3942L21.9017 72.8638C22.1493 73.1699 22.4014 73.4727 22.6716 73.7657C22.7583 73.8596 22.8435 73.9546 22.9289 74.0498C23.1098 74.2516 23.2916 74.4543 23.4897 74.6499L23.7003 74.8719L23.7467 74.9203C23.7749 74.9535 23.7743 74.9575 23.7687 74.9939L23.748 75.1314L23.655 75.1174L23.5842 75.1481L23.4472 75.206C23.3826 75.235 23.3163 75.2618 23.2495 75.2888C23.124 75.3395 22.9965 75.3909 22.8756 75.459C22.4933 75.6529 22.1256 75.874 21.7751 76.1205C21.0714 76.6186 20.4489 77.2225 19.9296 77.9105C19.2634 78.7585 18.727 79.7008 18.3379 80.7066L18.4701 81.0367C18.1738 81.4388 18.1861 81.1925 18.3097 80.7561C18.1875 80.6343 17.7304 81.4175 17.5393 82.191L17.5113 82.3771C17.5056 82.3996 17.5021 82.4227 17.501 82.4459L17.4662 82.6764C17.4483 82.6672 17.4294 82.6516 17.4099 82.6355C17.3793 82.6103 17.3475 82.5841 17.3154 82.5792C17.2901 82.5634 17.2627 82.5509 17.2342 82.5422C17.1242 82.476 17.0102 82.4091 16.9105 82.3569C16.3519 82.0768 15.9169 81.8266 15.5206 81.5987C15.022 81.3118 14.5845 81.0602 14.0388 80.8283C13.9434 80.7727 13.8362 80.741 13.726 80.7356C13.7642 80.7575 13.8043 80.776 13.8459 80.7909L12.8333 80.6756C12.5059 80.6512 12.177 80.6946 11.8671 80.803C11.5194 80.9279 11.2164 81.1528 10.9962 81.4495C10.9447 81.517 10.8992 81.5891 10.8604 81.6648L10.7583 81.8478L10.6004 82.155L10.295 82.7542C10.1514 83.0188 10.0133 83.2805 9.87809 83.5369C9.6148 84.0361 9.36214 84.515 9.09891 84.9563C8.76921 85.2649 8.52588 85.4704 8.31431 85.649C8.16469 85.7753 8.03018 85.8889 7.89295 86.0155C7.41683 86.4627 6.87956 86.8399 6.29725 87.1358C6.19588 87.1951 6.08415 87.2384 5.97148 87.282C5.90271 87.3086 5.83357 87.3355 5.76624 87.3661C5.58691 87.4249 5.40084 87.4608 5.21247 87.4729C4.62639 87.4922 4.06884 87.4867 3.49228 87.4702C2.73232 87.4292 1.98549 87.6807 1.40523 88.1732C1.09587 88.4199 0.850754 88.7377 0.690768 89.0997C0.624717 89.2412 0.59019 89.3955 0.589571 89.5517C0.645945 89.7564 0.665666 89.9694 0.647823 90.181C0.618572 90.4272 0.619977 90.676 0.652009 90.9219C0.571111 90.6078 0.531279 90.5977 0.476047 90.6348C0.469024 90.6396 0.46197 90.6449 0.454914 90.6504C0.406505 90.6873 0.357886 90.7246 0.319371 90.5492C0.275208 90.3482 0.238033 90.2929 0.189177 90.48C0.158196 90.6541 0.153721 90.8319 0.175904 91.0073C0.212047 91.3502 0.347019 91.6752 0.56441 91.9427C0.821838 92.2257 1.16101 92.4213 1.53477 92.5025C1.82467 92.574 2.12721 92.5771 2.41852 92.5116L2.3619 92.5031C2.69602 92.4541 3.05401 92.384 3.39826 92.2952C3.66431 92.2265 3.92397 92.1348 4.16714 92.0488C4.2384 92.0236 4.30888 91.9987 4.37706 91.9753C5.46937 91.5608 6.51414 91.1598 7.67426 90.6521C7.93784 90.5354 8.19402 90.4028 8.44137 90.2548C8.66158 90.1102 8.86038 89.9706 9.05917 89.8311C9.09038 89.7997 9.12091 89.7651 9.15145 89.7305C9.17337 89.7056 9.19544 89.6805 9.21811 89.6563C9.36656 89.5818 9.34925 89.5945 9.29158 89.637C9.23104 89.6817 9.12603 89.7592 9.12155 89.803C9.11281 89.8886 9.29042 89.8077 9.67521 89.5597C10.3512 89.1089 10.9826 88.5946 11.561 88.0239L11.9918 87.5801L12.4259 87.0871C12.4903 87.0052 12.53 86.9558 12.5568 86.9224C12.6001 86.8684 12.6098 86.8563 12.6362 86.8169C12.6749 86.7651 12.7107 86.7111 12.7433 86.6551C12.8092 86.7085 12.8666 86.7715 12.9137 86.8421L12.9514 86.8933C12.9676 86.9242 12.9885 86.9524 13.0132 86.9771L13.2655 87.2798C13.2901 87.3107 13.3444 87.3557 13.4066 87.407C13.4671 87.4571 13.5351 87.5133 13.5901 87.5686C13.5932 87.5717 13.5964 87.575 13.5995 87.5783C13.598 87.5802 13.5964 87.582 13.5948 87.5839L13.5936 87.5854C13.5471 87.6418 13.5005 87.6982 13.4544 87.7552C13.2762 87.9752 13.0792 88.1781 12.8817 88.3817C12.7414 88.5261 12.6009 88.671 12.4665 88.8225C11.933 89.3579 11.3427 89.8334 10.706 90.2406C10.4124 90.4438 10.0964 90.6051 9.78256 90.7652C9.59279 90.862 9.40386 90.9584 9.22127 91.0633C8.90475 91.2793 8.55183 91.4363 8.17949 91.5268C8.12406 91.5447 8.0755 91.5793 8.0405 91.6259C8.01666 91.6493 7.99925 91.6786 7.98991 91.7108C7.98057 91.743 7.97962 91.7769 7.98714 91.8095C7.99273 91.8339 8.0029 91.8568 8.017 91.8772C7.85882 91.915 7.70809 91.9564 7.56469 92.001L7.56674 91.9977C7.5798 91.9756 7.58511 91.9498 7.5818 91.9245C7.55311 91.8953 7.5248 91.8911 7.50436 91.9169C7.47374 91.942 7.45249 91.9767 7.44403 92.0154C7.44256 92.0251 7.44503 92.0326 7.44986 92.0379C7.36054 92.0676 7.27421 92.0986 7.19082 92.1308C7.18159 92.0722 7.1631 92.0046 7.13533 91.9238C6.82121 91.9741 6.52153 92.0911 6.25641 92.267C6.27891 92.2109 6.30642 92.1569 6.33862 92.1057C6.4918 91.994 6.6559 91.8982 6.82841 91.8196L7.35735 91.6304C7.56517 91.5885 7.75535 91.4845 7.90275 91.3321C7.78959 91.2421 7.69178 91.2759 7.60039 91.3073C7.57245 91.317 7.54511 91.3265 7.51812 91.332C7.44752 91.3464 7.37848 91.3698 7.30946 91.3932C7.16155 91.4434 7.01363 91.4935 6.85027 91.4548C6.66878 91.4211 6.48124 91.4578 6.32602 91.5578C6.15356 91.6589 5.98859 91.7723 5.83236 91.897C5.54059 92.0915 5.28229 92.3319 5.06748 92.609C4.9505 92.7542 4.84799 92.9106 4.76141 93.0758C4.67371 93.256 4.60761 93.4459 4.56449 93.6417C4.46655 94.0667 4.51767 94.5125 4.70931 94.9043C4.89657 95.2871 5.20428 95.5979 5.58522 95.789C5.67949 95.8404 5.77831 95.883 5.88041 95.9163C5.9818 95.9552 6.08738 95.9821 6.19503 95.9967L6.5307 96.0472C6.62843 96.0494 6.72619 96.0434 6.82293 96.0292C7.16817 95.9973 7.50729 95.9175 7.8306 95.7922C8.36952 95.6229 8.8965 95.4176 9.40799 95.1779C9.63274 95.0587 9.85643 94.9466 10.0802 94.8345C10.3038 94.7224 10.5275 94.6103 10.7523 94.4911C11.5804 94.0308 12.3767 93.5151 13.1355 92.9476C13.2609 92.8494 13.3914 92.7545 13.5217 92.6596C13.7322 92.5064 13.9426 92.3534 14.131 92.1876C14.256 92.0775 14.3868 91.9712 14.5186 91.864C14.7082 91.7098 14.8999 91.5539 15.0793 91.3833C15.1554 91.3172 15.2259 91.2448 15.2898 91.1668C15.3931 91.0329 15.5036 90.9045 15.6207 90.7824C15.69 90.7134 15.7603 90.6382 15.8317 90.5617C15.8756 90.5147 15.9199 90.4674 15.9647 90.4206C16.063 90.3261 16.1588 90.229 16.252 90.1294C17.399 91.2398 17.9292 91.4183 18.4129 91.5813C18.4666 91.5994 18.52 91.6173 18.5733 91.6364C18.8493 91.7338 19.1073 91.8761 19.337 92.0574C19.0886 91.9497 19.0682 91.9756 19.2913 92.1415C19.3501 92.2456 19.4198 92.3594 19.9818 92.6096C20.9939 93.0486 22.0784 93.2961 23.1807 93.3395C23.3041 93.3421 23.4209 93.3437 23.5337 93.3453C23.7414 93.3481 23.9363 93.3507 24.1332 93.359L25.1153 93.4283C25.5394 93.4668 25.9666 93.4476 26.3855 93.3715C26.6858 93.2942 26.2672 93.2711 25.9252 93.2523L25.8785 93.2497C25.5299 93.2302 25.4047 93.1824 25.4391 93.1462C25.5346 93.112 25.6326 93.0857 25.7322 93.0677C26.0343 93.0604 26.346 93.0476 26.6685 93.0299C26.7506 93.0255 26.8323 93.0214 26.9138 93.0178C27.0121 93.0371 27.0706 93.0656 27.1263 93.0928C27.1405 93.0998 27.1545 93.1066 27.1688 93.1132C27.1896 93.1256 27.2116 93.1358 27.2345 93.1437C27.825 93.3507 28.444 93.465 29.0696 93.4822C29.6658 93.5387 29.9124 93.5014 30.149 93.4657C30.3764 93.4314 30.5945 93.3985 31.1049 93.4513L31.0901 93.468C31.1225 93.4698 31.1536 93.4714 31.1833 93.4728C31.8205 93.7377 32.5074 93.8628 33.1973 93.8393C33.6668 93.8485 34.1317 93.9339 34.5737 94.0921C35.1439 94.3515 35.8939 94.5447 36.6675 94.7439C37.3328 94.9152 38.0154 95.0911 38.6162 95.3174C39.8217 95.8076 41.0843 96.1436 42.374 96.3177L42.8111 96.5738L42.9906 96.7001L43.2127 96.8453C43.5121 97.0269 43.8311 97.2155 44.1872 97.4056C45.0166 97.8466 45.8857 98.2088 46.7829 98.4874C47.5023 98.8695 48.1664 99.087 48.8369 99.306C49.4229 99.4972 50.0135 99.6904 50.6503 99.9965L50.8009 100.04L50.6593 100.018C50.9673 100.255 51.3165 100.432 51.689 100.541C51.8483 100.595 52.0076 100.648 52.1671 100.702C53.5289 101.161 54.8986 101.62 56.2938 102.042L58.9257 102.802C60.213 103.163 61.5313 103.402 62.8633 103.516L62.9427 103.548C64.6333 104.238 64.6824 104.258 67.0373 104.388C67.5428 104.612 68.0753 104.769 68.6215 104.854C69.3657 104.962 70.118 105.004 70.8694 104.978C70.9243 104.976 70.9792 104.975 71.0342 104.973L71.3173 104.966C71.8893 104.951 72.4715 104.936 73.1062 104.902C73.122 104.879 73.1129 104.857 73.0835 104.831L73.1402 104.84C73.18 104.856 73.2188 104.874 73.256 104.895C73.2064 104.908 73.1555 104.914 73.1043 104.914C72.8967 105.138 73.0841 105.213 74.575 105.172L75.5227 105.141C75.8398 105.123 76.1541 105.096 76.4603 105.067C77.0281 105.024 77.5925 104.944 78.1505 104.829C78.6113 104.872 79.0759 104.834 79.5239 104.718C79.6688 104.676 79.7782 104.628 79.8928 104.58C79.9837 104.541 80.078 104.5 80.1957 104.46C80.2984 104.429 80.429 104.393 80.5934 104.35C80.6925 104.324 80.8039 104.294 80.9289 104.26C80.8976 104.286 80.8565 104.315 80.8156 104.345C80.5962 104.499 80.382 104.651 81.7094 104.378C81.8434 104.347 81.978 104.317 82.1129 104.287C83.8545 103.9 85.6676 103.496 87.1935 102.54C87.2601 102.495 87.361 102.444 87.4787 102.384C87.5643 102.342 87.6588 102.293 87.7557 102.24C87.9857 102.114 88.2278 101.989 88.4113 101.896C89.1229 101.545 89.7754 101.085 90.3455 100.534C90.4637 100.424 90.5827 100.301 90.7067 100.172C90.82 100.055 90.9373 99.9331 91.0618 99.8142L91.43 99.4021C91.495 99.3268 91.5482 99.2535 91.6007 99.1811C91.6372 99.1306 91.6735 99.0811 91.7133 99.031C91.69 99.1187 91.6495 99.2019 91.594 99.2733C91.5604 99.3278 91.5223 99.3783 91.4801 99.4259L91.3056 99.623C91.2417 99.6983 91.1784 99.7687 91.124 99.8281L91.1237 99.8291C90.9855 99.9807 90.9054 100.069 91.0215 100.027C91.134 99.9767 91.237 99.9064 91.3256 99.8202L91.4946 99.6597L91.5785 99.5695L91.6427 99.5002C91.7057 99.4219 91.7638 99.3397 91.8164 99.2535L91.8643 99.1821C91.8807 99.1554 91.9249 99.1911 91.9249 99.1911L92.0483 99.2515L92.2523 99.3525L92.5472 99.5081L93.1855 99.8568C93.7159 100.152 93.8184 100.296 93.8915 100.414C94.3427 100.718 94.8124 100.992 95.2977 101.238C96.1448 101.64 97.0135 102.116 97.8967 102.599C99.3847 103.414 100.913 104.252 102.45 104.797C102.462 104.802 102.478 104.81 102.496 104.819C102.506 104.824 102.515 104.83 102.526 104.836C102.559 104.855 102.599 104.877 102.638 104.896C103.609 105.369 104.619 105.761 105.655 106.066C106.783 106.409 107.934 106.666 109.1 106.837C110.29 107.036 111.503 107.053 112.699 106.887C113.357 106.81 113.963 106.49 114.397 105.989C114.452 105.907 114.497 105.822 114.535 105.732L114.613 105.521C114.643 105.437 114.677 105.355 114.713 105.266L114.728 105.231C114.736 105.21 114.745 105.189 114.754 105.167C114.767 105.136 114.779 105.105 114.793 105.072C114.87 104.901 114.93 104.72 114.972 104.537C115.002 104.454 115.011 104.365 114.998 104.277C114.986 104.189 114.953 104.106 114.903 104.034C114.772 103.911 114.607 103.83 114.429 103.801C114.249 103.757 114.065 103.73 113.879 103.719L112.95 103.653C112.357 103.633 111.768 103.558 111.188 103.433L110.72 103.362L110.26 103.256C110.171 103.22 110.07 103.187 109.962 103.151C109.769 103.087 109.554 103.014 109.348 102.912L108.872 102.691L108.492 102.472C108.348 102.397 108.209 102.314 108.075 102.224L107.481 101.799L107.041 101.452L106.435 100.947ZM31.1833 93.4728C32.0578 93.5127 31.8049 93.3864 31.3262 93.2183L31.3147 93.2124L31.1049 93.4513L31.1208 93.453L31.1416 93.4552C31.1555 93.4611 31.1695 93.4669 31.1833 93.4728ZM13.8686 87.2316C13.8248 87.1862 13.7788 87.143 13.7306 87.1016C13.6588 87.0269 13.5765 86.963 13.4863 86.9118C13.589 87.0517 13.6966 87.1878 13.8089 87.3199C13.8126 87.3151 13.8162 87.3105 13.8199 87.3057C13.8355 87.2805 13.8517 87.2558 13.8686 87.2316ZM52.5476 100.361C52.5742 100.365 52.6019 100.37 52.6303 100.377C52.9314 100.486 53.2306 100.593 53.5281 100.698C53.1955 100.603 52.8683 100.491 52.5476 100.361ZM61.2074 103.03C61.1875 103.025 61.1586 103.008 61.1333 102.991C61.3136 103.035 61.4932 103.08 61.6718 103.122C61.5153 103.102 61.3601 103.072 61.2074 103.03ZM108.392 100.365C108.389 100.368 108.379 100.367 108.375 100.346C108.391 100.346 108.406 100.345 108.421 100.345C108.406 100.356 108.394 100.363 108.392 100.365ZM102.819 94.9139L102.838 94.9169C102.838 94.9169 102.879 94.9479 102.903 94.9018L102.842 94.8926L102.819 94.9139ZM101.809 94.1456L101.829 94.1487L101.833 94.1284L101.809 94.1456ZM101.513 94.1919C101.532 94.2139 101.556 94.2292 101.584 94.2359C101.584 94.2359 101.623 94.2044 101.592 94.1873C101.574 94.1723 101.553 94.1608 101.531 94.1533C101.484 94.1587 101.478 94.1743 101.5 94.1942L101.513 94.1919ZM100.178 92.6426C100.194 92.6815 100.214 92.719 100.236 92.7547L100.307 92.8027C100.314 92.7558 100.287 92.7295 100.26 92.7023C100.245 92.6873 100.229 92.672 100.218 92.6528C100.189 92.5987 100.158 92.6147 100.165 92.6448L100.178 92.6426ZM105.689 100.293C105.676 100.277 105.667 100.252 105.659 100.228C105.638 100.17 105.617 100.111 105.53 100.166L105.526 100.19C105.522 100.206 105.52 100.222 105.519 100.238C105.509 100.304 105.534 100.386 105.622 100.349C105.647 100.333 105.67 100.315 105.689 100.293ZM106.063 100.254C106.066 100.23 106.068 100.217 106.04 100.217C106.011 100.217 105.968 100.252 105.965 100.302C105.961 100.35 105.98 100.337 106.006 100.308C106.026 100.291 106.044 100.273 106.063 100.254ZM62.128 82.6419L62.2941 82.638L62.1323 82.6136L62.128 82.6419ZM43.5406 79.238L43.7051 79.3C43.7341 79.3043 43.805 79.3346 43.8775 79.3655C43.9968 79.4165 44.1207 79.4694 44.0727 79.4133C44.0211 79.3533 43.9197 79.3332 43.8205 79.3137C43.7706 79.3039 43.7213 79.2942 43.6791 79.2795L43.5406 79.238ZM30.2088 74.6074L30.9934 74.7256C31.1552 74.75 31.0972 74.6958 30.8875 74.66C30.6779 74.6243 30.386 74.5845 30.2529 74.5893C29.8853 74.5587 29.9095 74.5623 30.2088 74.6074ZM20.3946 63.2646C20.4152 63.3765 20.4683 63.5688 20.5088 63.7151C20.5175 63.7468 20.5256 63.7763 20.5328 63.8024C20.6137 64.0338 20.6733 64.1876 20.7376 64.3379C20.677 64.0748 20.6029 63.8153 20.5155 63.56C20.462 63.3658 20.3832 63.176 20.3946 63.2646ZM18.2688 64.4167C18.2645 64.356 18.2569 64.2956 18.2465 64.2355C18.2329 64.1647 18.2129 64.0953 18.1868 64.0281C18.1409 63.9757 18.1534 64.085 18.2137 64.2885C18.2297 64.3322 18.2481 64.3751 18.2688 64.4167ZM21.3155 71.8408L21.214 71.718C21.0388 71.4806 20.8705 71.2527 20.681 71.0007C20.7689 71.1443 20.8637 71.2846 20.9587 71.4252C20.9963 71.481 21.0342 71.537 21.0715 71.5931C21.1296 71.6465 21.1846 71.7031 21.2362 71.7627L21.3155 71.8408ZM6.80648 87.105C6.8489 87.0955 6.89 87.0809 6.92886 87.0614C7.10708 86.9766 7.20197 86.8958 7.18076 86.8719C7.1656 86.8548 7.13898 86.8719 7.10703 86.8924C7.09429 86.9006 7.08051 86.9094 7.06647 86.9167C6.91656 87.0058 6.80731 87.072 6.80648 87.105ZM4.23761 87.9588L4.27805 87.965L4.36785 87.9454L4.23761 87.9588ZM2.24095 92.2077L2.07568 92.2614L1.89204 92.2999C1.96959 92.2903 2.04641 92.2757 2.122 92.256L2.24095 92.2077ZM2.66972 91.8049L2.52208 91.824L2.51843 91.8483L2.66972 91.8049ZM7.53735 90.3254L7.2264 90.5226C7.11189 90.5964 7.18712 90.5911 7.36473 90.5104C7.4756 90.4509 7.58136 90.3825 7.68095 90.3057C7.78858 90.2227 7.72304 90.2459 7.53735 90.3254ZM10.9478 88.25C10.9251 88.2668 10.9002 88.2841 10.8757 88.3009C10.8404 88.3253 10.8061 88.349 10.7809 88.3696C10.6238 88.5073 10.5916 88.5561 10.6996 88.498C10.6996 88.498 10.8084 88.4068 10.8655 88.3576L10.9478 88.25ZM12.1491 86.5904C12.1341 86.6124 12.119 86.6347 12.1037 86.6571C12.0334 86.7605 11.9612 86.8669 11.882 86.9638C11.8788 86.9846 11.8404 87.0383 11.8033 87.0903C11.7322 87.1896 11.6656 87.2827 11.857 87.1296L11.9494 86.9285C11.9632 86.8982 12.0105 86.8352 12.0585 86.7713C12.1395 86.6637 12.2222 86.5537 12.1485 86.5945L12.1491 86.5904ZM19.8082 92.087L19.6924 92.0324L19.728 92.0708L19.8082 92.087ZM21.5889 92.7317L21.3742 92.6746L20.9914 92.6624L21.0399 92.6696C21.1245 92.6809 21.2343 92.7045 21.3348 92.7261C21.5036 92.7624 21.6465 92.7931 21.5986 92.7497L21.5889 92.7317ZM37.0601 94.5825C36.5718 94.3121 36.0375 94.1347 35.4844 94.0597L35.359 94.0409C35.3916 94.0715 35.428 94.0978 35.4672 94.1192C35.794 94.3223 36.1615 94.4511 36.5436 94.4964C36.6815 94.5338 36.7933 94.5487 36.904 94.5636C36.9591 94.5709 37.0139 94.5783 37.0716 94.5884L37.0601 94.5825ZM38.5012 95.0643L38.3633 95.0187L38.3996 95.0531L38.5012 95.0643ZM40.3516 95.5209C40.4446 95.5349 40.3173 95.4744 40.0847 95.398C39.8522 95.3216 39.5143 95.2583 39.5024 95.3102C39.6148 95.3795 39.7403 95.4252 39.8709 95.4444L39.8912 95.4482C40.0764 95.4841 40.2493 95.5176 40.3752 95.5286L40.3516 95.5209ZM84.7584 103.438L84.5966 103.497L84.76 103.455L84.7584 103.438ZM105.077 105.734L104.906 105.679L105.043 105.738L105.077 105.734ZM108.826 102.912L108.983 102.973L108.837 102.897L108.826 102.912ZM10.5157 94.1149C10.4893 94.1283 10.463 94.1415 10.4366 94.1547C10.4197 94.173 10.4073 94.195 10.4004 94.2189L10.4047 94.2444L10.4078 94.2242C10.4114 94.2008 10.4325 94.1907 10.4552 94.1799C10.482 94.167 10.511 94.1531 10.5157 94.1149ZM9.67439 94.5154C9.65469 94.5242 9.63504 94.5329 9.61543 94.5415C9.61012 94.5583 9.60827 94.5774 9.60734 94.5958C9.60529 94.6368 9.62613 94.6358 9.64757 94.6308L9.64291 94.6342C9.65318 94.6333 9.66302 94.6297 9.67155 94.6238C9.68007 94.618 9.687 94.6102 9.69168 94.601C9.69636 94.5918 9.69865 94.5815 9.69834 94.5712C9.69803 94.5609 9.69512 94.5509 9.68989 94.542C9.68581 94.5325 9.68059 94.5236 9.67439 94.5154ZM13.0363 92.6014C13.0157 92.6158 12.9952 92.6302 12.9747 92.6444C12.9985 92.6515 13.02 92.6424 13.0363 92.6014ZM8.57144 95.0477C8.57144 95.0477 8.59891 95.0849 8.61448 95.0914C8.63005 95.0979 8.68727 95.1024 8.69702 95.0377C8.70166 95.0069 8.70326 94.9963 8.69925 94.9933C8.69713 94.9918 8.69344 94.9924 8.6878 94.9933C8.68168 94.9944 8.67326 94.9958 8.66207 94.9952C8.62101 94.9931 8.60767 94.9994 8.57608 95.0443L8.57144 95.0477ZM8.33867 95.1651L8.33321 95.2013C8.32069 95.1795 8.32917 95.1728 8.33601 95.1674L8.33707 95.1665L8.33867 95.1651ZM8.38534 95.1024L8.34046 95.1535C8.33964 95.1521 8.33849 95.1506 8.33699 95.1488L8.38534 95.1024ZM7.94232 95.3252C7.97063 95.3294 8.00442 95.2973 8.01456 95.2574C8.01867 95.2413 8.03408 95.2405 8.05042 95.2396C8.07435 95.2383 8.10027 95.2368 8.09549 95.187L8.00768 95.2482C8.00768 95.2482 7.97572 95.2681 7.9652 95.2831C7.96162 95.2882 7.95364 95.2907 7.94628 95.2931C7.93199 95.2975 7.92003 95.3013 7.94697 95.3217L7.94232 95.3252ZM7.50804 95.4624C7.50317 95.4948 7.50195 95.5028 7.54444 95.4679C7.54725 95.4638 7.54909 95.4591 7.54983 95.4543C7.55058 95.4493 7.55019 95.4444 7.5487 95.4396L7.52848 95.4365C7.51095 95.4339 7.50983 95.4462 7.50904 95.4548C7.50893 95.4561 7.50882 95.4573 7.50865 95.4583L7.50804 95.4624ZM6.83383 95.4353L6.87848 95.4958C6.91083 95.5006 6.91892 95.5019 6.90822 95.4631C6.89918 95.4318 6.88203 95.4036 6.85852 95.3812C6.85852 95.3812 6.82778 95.3931 6.83565 95.4232L6.83383 95.4353ZM6.18819 95.6028C6.29317 95.6335 6.40522 95.6301 6.50813 95.5931C6.57549 95.5577 6.51788 95.5283 6.47926 95.5101C6.46286 95.5023 6.44808 95.5135 6.43371 95.5244C6.41426 95.5391 6.39553 95.5532 6.3745 95.5192L6.45643 95.4694C6.32986 95.3264 6.28704 95.4082 6.22818 95.5208C6.2164 95.5432 6.20388 95.5672 6.19002 95.5906L6.18819 95.6028ZM5.37091 95.0702C5.37291 95.0636 5.37394 95.0568 5.37395 95.05L5.37091 95.0702ZM5.03912 93.9779L5.0189 93.9749C4.99332 94.1447 4.9921 94.1528 5.10184 94.248C5.13525 94.1909 5.09952 94.1535 5.06381 94.1161C5.02808 94.0786 4.99237 94.0412 5.02577 93.9841L5.03912 93.9779ZM5.02575 93.6822C5.01662 93.7429 5.00748 93.8036 5.08553 93.8071L5.09542 93.8076C5.10137 93.8079 5.1068 93.8082 5.11175 93.8086L5.12737 93.8097C5.16374 93.8124 5.16517 93.8125 5.17473 93.7915C5.18709 93.7645 5.15761 93.6855 5.10586 93.6447C5.05412 93.6038 5.03345 93.6586 5.01927 93.6978L5.02575 93.6822ZM5.25033 93.2074C5.17205 93.2327 5.15825 93.2968 5.16347 93.3721C5.20632 93.3329 5.23464 93.2803 5.24384 93.2229L5.25033 93.2074ZM5.40882 92.9789C5.4053 92.9765 5.40129 92.9749 5.3971 92.9744C5.3929 92.9738 5.38861 92.9741 5.38455 92.9752C5.38111 92.9829 5.37984 92.9913 5.38089 92.9995C5.37663 93.0279 5.39747 93.0269 5.41325 93.0044C5.40997 93.0007 5.40632 92.9974 5.40233 92.9945L5.40882 92.9789ZM5.67495 92.6674L5.6719 92.6876L5.69213 92.6907L5.67495 92.6674Z" fill="#E33529"/>
<path d="M93.772 100.383L93.871 100.419L93.8675 100.414L93.772 100.383Z" fill="#E33529"/>
<path d="M123.39 68.3955C122.942 68.0699 121.921 67.6069 121.436 68.3589C120.829 69.2989 124.483 71.0651 123.39 68.3955Z" fill="#E33529"/>
<path d="M33.9365 94.0703L34.1103 94.0965C34.1491 94.109 34.1869 94.1244 34.2234 94.1424L34.1313 94.1493L33.9365 94.0703Z" fill="#E33529"/>
</svg>
