<?xml version="1.0" encoding="UTF-8"?>
<svg id="_레이어_1" xmlns="http://www.w3.org/2000/svg" version="1.1" viewBox="0 0 55 37">
  <!-- Generator: Adobe Illustrator 29.3.1, SVG Export Plug-In . SVG Version: 2.1.0 Build 151)  -->
  <defs>
    <style>
      .st0, .st1 {
        letter-spacing: 0em;
      }

      .st2, .st3, .st4, .st5, .st6 {
        fill: red;
      }

      .st2, .st7, .st4, .st5, .st6 {
        isolation: isolate;
      }

      .st2, .st8, .st4, .st9 {
        font-family: Roboto-Black, Roboto;
        font-weight: 800;
      }

      .st2, .st4, .st5 {
        font-size: 15.5px;
      }

      .st2, .st10, .st9 {
        letter-spacing: 0em;
      }

      .st8 {
        letter-spacing: 0em;
      }

      .st6 {
        font-family: Bayon-Regular, Bayon;
        font-size: 19.1px;
      }

      .st1 {
        font-family: Roboto-Bold, Roboto;
        font-weight: 700;
      }
    </style>
  </defs>
  <g class="st7">
    <g class="st7">
      <text class="st6" transform="translate(0 61.3)"><tspan x="0" y="0">Cori</tspan></text>
    </g>
    <g class="st7">
      <text class="st6" transform="translate(0 76.2)"><tspan x="0" y="0">S</tspan></text>
    </g>
    <g class="st7">
      <text class="st6" transform="translate(8 76.2)"><tspan x="0" y="0">al</tspan></text>
    </g>
    <g class="st7">
      <text class="st6" transform="translate(22.5 76.2)"><tspan x="0" y="0">r</tspan></text>
    </g>
    <g class="st7">
      <text class="st6" transform="translate(31.5 76.2)"><tspan x="0" y="0">a</tspan></text>
    </g>
    <g class="st7">
      <text class="st6" transform="translate(39.1 76.2)"><tspan x="0" y="0">ng</tspan></text>
    </g>
  </g>
  <g class="st7">
    <g class="st7">
      <path class="st3" d="M9,7.5h0c0,1.3-.3,2.3-1.1,2.9-.7.6-1.8,1-3.1,1s-2.5-.4-3.3-1.2c-.8-.8-1.2-1.9-1.2-3.3v-2.3c0-1.3.4-2.4,1.2-3.3S3.3,0,4.7,0s2.5.3,3.2,1,1.1,1.6,1.1,2.8h0s-2.5,0-2.5,0c0-.7-.1-1.2-.4-1.5-.3-.3-.8-.4-1.4-.4s-1,.2-1.3.7c-.3.5-.5,1.1-.5,1.8v2.3c0,.8.2,1.4.5,1.9.3.5.8.7,1.5.7s1-.1,1.3-.4c.3-.3.4-.8.4-1.5h2.5Z"/>
      <path class="st3" d="M18.8,6.7c0,1.4-.4,2.5-1.3,3.4-.9.9-2,1.3-3.4,1.3s-2.5-.4-3.4-1.3c-.9-.9-1.3-2-1.3-3.4v-2c0-1.4.4-2.5,1.3-3.4C11.6.5,12.7,0,14.1,0s2.5.4,3.4,1.3c.9.9,1.3,2,1.3,3.4v2ZM16.2,4.7c0-.8-.2-1.4-.6-1.9-.4-.5-.9-.8-1.6-.8s-1.2.3-1.6.8c-.4.5-.5,1.1-.5,1.9v2c0,.8.2,1.4.6,2,.4.5.9.8,1.6.8s1.2-.3,1.6-.8c.4-.5.6-1.2.6-2v-2Z"/>
      <path class="st3" d="M22.1,7v4.2h-2.6V.2h3.8c1.3,0,2.3.3,3,.9.7.6,1.1,1.4,1.1,2.4s-.2,1.1-.5,1.5c-.3.4-.7.7-1.3,1,.7.2,1.2.5,1.5,1,.3.4.4,1,.4,1.7v.7c0,.3,0,.6.1,1,0,.4.2.6.4.8v.2h-2.6c-.2-.2-.3-.4-.4-.8s0-.8,0-1.1v-.7c0-.5-.1-.9-.4-1.2s-.7-.4-1.2-.4h-1.4ZM22.1,5h1.3c.5,0,.9-.1,1.2-.4s.4-.6.4-1-.1-.8-.4-1.1c-.3-.3-.7-.4-1.2-.4h-1.3v2.9Z"/>
      <path class="st3" d="M31.4,11.2h-2.5V.2h2.5v11Z"/>
    </g>
    <g class="st7">
      <path class="st3" d="M6.2,21c0-.4-.1-.7-.4-.9-.3-.2-.7-.4-1.4-.7-1.4-.4-2.4-.9-3-1.4-.7-.5-1-1.2-1-2.2s.4-1.7,1.2-2.2c.8-.6,1.8-.9,2.9-.9s2.3.3,3,.9c.8.6,1.1,1.4,1.1,2.5h0s-2.5,0-2.5,0c0-.5-.1-.9-.4-1.1-.3-.2-.7-.4-1.3-.4s-.8.1-1.1.3c-.3.2-.4.5-.4.8s.1.6.4.8c.3.2.8.4,1.5.7,1.3.4,2.2.8,2.9,1.4.7.5,1,1.3,1,2.2s-.4,1.7-1.1,2.3-1.8.8-3,.8-2.3-.3-3.2-.9-1.3-1.5-1.3-2.8h0s2.5,0,2.5,0c0,.6.2,1.1.5,1.4s.8.4,1.5.4.9-.1,1.2-.3.4-.5.4-.8Z"/>
      <path class="st3" d="M15.3,21.6h-3.6l-.7,2.4h-2.3l3.7-11h2.3l3.7,11h-2.3l-.7-2.4ZM12.2,19.8h2.5l-1.2-3.9h0l-1.2,3.9Z"/>
      <path class="st3" d="M21.3,22h4.7v2h-7.3v-11h2.6v9.1Z"/>
    </g>
    <g class="st7">
      <path class="st3" d="M3.1,32.5v4.2H.5v-11h3.8c1.3,0,2.3.3,3,.9.7.6,1.1,1.4,1.1,2.4s-.2,1.1-.5,1.5c-.3.4-.7.7-1.3,1,.7.2,1.2.5,1.5,1,.3.4.4,1,.4,1.7v.7c0,.3,0,.6.1,1,0,.4.2.6.4.8v.2h-2.6c-.2-.2-.3-.4-.4-.8s0-.8,0-1.1v-.7c0-.5-.1-.9-.4-1.2s-.7-.4-1.2-.4h-1.4ZM3.1,30.5h1.3c.5,0,.9-.1,1.2-.4s.4-.6.4-1-.1-.8-.4-1.1c-.3-.3-.7-.4-1.2-.4h-1.3v2.9Z"/>
    </g>
    <g class="st7">
      <path class="st3" d="M16,34.6h-3.3l-.6,2.1h-2.7l3.6-11h1.4s0,0,0,0h1.4l3.6,11h-2.7l-.6-2.1ZM13.3,32.6h2.1l-1-3.4h0l-1,3.4Z"/>
      <path class="st3" d="M28.8,36.7h-2.6l-4-6.9h0v6.9h-2.6v-11h2.6l4,6.9h0v-6.9h2.6v11Z"/>
      <path class="st3" d="M38.5,35.2c-.4.5-.9.9-1.6,1.2s-1.6.5-2.7.5-2.5-.4-3.3-1.3c-.9-.8-1.3-1.9-1.3-3.3v-2.3c0-1.3.4-2.4,1.2-3.3.8-.8,1.9-1.3,3.2-1.3s2.5.3,3.2.9c.7.6,1.1,1.5,1,2.6h0s-2.4,0-2.4,0c0-.5-.1-.9-.4-1.2-.3-.3-.7-.4-1.3-.4s-1.1.2-1.4.7-.5,1.1-.5,1.8v2.3c0,.8.2,1.4.5,1.9.4.5.9.7,1.5.7s.8,0,1.1-.1c.3,0,.5-.2.6-.3v-2h-2v-1.7h4.5v4.4Z"/>
    </g>
  </g>
  <g class="st7">
    <text class="st2" transform="translate(65.1 58.1)"><tspan x="0" y="0">CORI</tspan></text>
    <text class="st5" transform="translate(65.1 70.8)"><tspan class="st8" x="0" y="0">S</tspan><tspan class="st1" x="8.9" y="0">A</tspan><tspan class="st9" x="18.3" y="0">L</tspan></text>
    <text class="st2" transform="translate(65.1 83.6)"><tspan x="0" y="0">R</tspan></text>
    <text class="st4" transform="translate(74.8 83.6)"><tspan class="st0" x="0" y="0">A</tspan><tspan class="st10" x="9.4" y="0">NG</tspan></text>
  </g>
</svg>