<?xml version="1.0" encoding="UTF-8"?>
<svg id="_레이어_1" data-name="레이어_1" xmlns="http://www.w3.org/2000/svg" version="1.1" xmlns:xlink="http://www.w3.org/1999/xlink" viewBox="0 0 76 37">
  <!-- Generator: Adobe Illustrator 29.3.1, SVG Export Plug-In . SVG Version: 2.1.0 Build 151)  -->
  <defs>
    <style>
      .st0 {
        fill: none;
      }

      .st1 {
        fill: #e33529;
      }

      .st2 {
        clip-path: url(#clippath);
      }
    </style>
    <clipPath id="clippath">
      <rect class="st0" x=".2" y=".5" width="75.7" height="36.5"/>
    </clipPath>
  </defs>
  <g class="st2">
    <path class="st1" d="M22,29.2c-.9-.2-1.7-.4-2.6-.5h-3.2c-.9-.1-1.9,0-2.7-.3-.8-.2-1.9-.8-2.7-1.2-.2-.1-.6-.6-.8-.6-1.3,1.3-3.3,2.9-5.1,3.5-1.6.5-2.7-.8-1.6-2.1.7-.8,1.2-.3,2.1-.6.6-.2,2.8-1.7,3-2.2,0-.3-.2-.4-.4-.6-1.2,1.6-3.4,2.7-5.3,3.3-1.2.3-2.5.6-2.4-1.1,0,0,.6-1.6,1.4-1.7,1.4-.3,1.7.4,3.2-.8,1.2-.9,1.3-1.8,2-2.9,1.2-1.6,3.8.8,4,.6l.6-.8c.2-1.7,1.7-3.3,3.3-3.8-.9-1.1-1.8-2.1-2.4-3.4-1.5-2.9-1.9-6.5-1.3-9.7,0-.3.6-2.5.7-2.6,0,0,.7,0,.8,0,.1.2-.3,1.9-.3,2.3-.3,4.2,1.2,9.1,4.6,11.8,1.4,1.1,2.4.8,4,1.2,3.3.8,5.6,2.7,8.7,3.5,5.6,1.6,17.8,2.4,22-2.3.2-.3.4-.8.7-.7.3,0,1.4,1.4,1.8,1.7,2.3,2,5.2,3.6,8.1,4.4-.3,1.2-.8,2.6-.6,3.8,0,.3,1.7,1.7,2.1,2,.6.4,2.8,1.8,3.4,1.7.2,0,.4-.3.6-.3,1.4-.4,1.8-.1,1.2,1.2-.5,1.2-1.9,1-3,1-.1,0-.4,0-.3.2.1.3,1.8,1.2,2.2,1.4.5.2,2.9.3,3,.5.3.4-.4,1.4-.8,1.7-1.4.7-4.6-.2-6-.8-2.5-.9-5-2.5-7.3-3.9-1.2,1.4-3.2,2.5-5.1,3-.9.2-2.1.4-3,.6-5.9.7-12.3-1.1-17.7-3.2-2.7-1.1-8.7-3.2-8.7-3.2"/>
    <path class="st1" d="M64.1,11.7c0-.1-1.1-.3-.9.3,0,.3.6.5.9.4,0-.2,0-.6,0-.7M52.4.5c1.4.9,2.7,1.9,4.1,2.8,1.8,1.2,4.3,2.7,6.3,3.6,1.3.6,2.5.6,3.8,1.5,1.6,1,2.5,2.7,4.3,3.5.6.3,2.1.4,1.7,1.2.7,0,1.2.4,1.9.5,0,0,.2.2.2.2.2.5,0,1-.3,1.5-1.7,2.6-7.1,2.1-9.8,2.6-1.9.4-2.4,3-2.5,4.6-1.9-.3-3.9-1.2-5.5-2.2-.7-.4-3.8-2.8-3.8-3.5l4.5-5.7c-2.8.5-9.1,1.2-10.3-2.2-.5-1.3-.2-2,1.1-2.4,3.2.7,6.5,1.4,9.8,1.6l-3.5-1.2c-2.1-.9-4.7-2.6-4.1-5.3,0-.1.2-.5.3-.6.1-.2,1.4-.6,1.7-.4"/>
    <path class="st1" d="M75.8,13.4c0,.4-.3.7-.7.7s-.7-.3-.7-.7.3-.7.7-.7.7.3.7.7"/>
  </g>
</svg>