<?xml version="1.0" encoding="UTF-8"?>
<svg id="_레이어_1" xmlns="http://www.w3.org/2000/svg" version="1.1" viewBox="0 0 78.4 37">
  <!-- Generator: Adobe Illustrator 29.3.1, SVG Export Plug-In . SVG Version: 2.1.0 Build 151)  -->
  <defs>
    <style>
      .st0 {
        fill: #e33529;
      }
    </style>
  </defs>
  <g>
    <path class="st0" d="M11.5,8.4h-4.7v-3.2c0-.9,0-1.5-.1-1.8,0-.2-.3-.3-.6-.3s-.6.1-.7.4c-.1.3-.2.8-.2,1.8v8.5c0,.8,0,1.5.2,1.8s.3.4.7.4.6-.1.7-.4c.1-.3.2-.9.2-1.9v-2.3h4.7v.7c0,1.9-.1,3.3-.4,4-.3.8-.8,1.5-1.8,2.1-.9.6-2.1.9-3.4.9s-2.5-.2-3.5-.7-1.5-1.2-1.8-2.1c-.3-.9-.4-2.2-.4-4v-5.4c0-1.4,0-2.3.1-2.9s.3-1.3.8-1.9c.4-.6,1.1-1.1,1.9-1.5.8-.3,1.7-.5,2.7-.5s2.5.3,3.5.8c.9.5,1.5,1.3,1.8,2s.4,2.1.4,3.8v1.8l-.2-.2Z"/>
    <path class="st0" d="M23.7,11.1c0,1.9,0,3.2-.1,3.9,0,.7-.3,1.5-.8,2.1-.4.6-1.1,1.2-1.9,1.5-.7.3-1.7.5-2.7.5s-1.9-.2-2.6-.5c-.7-.3-1.4-.8-1.9-1.5s-.7-1.4-.8-2.1-.1-2.1-.1-4v-3.2c0-1.9,0-3.2.1-3.9,0-.7.3-1.5.8-2.1.4-.6,1.1-1.2,1.9-1.5.7-.3,1.7-.5,2.7-.5s1.9.2,2.6.5c.7.3,1.4.8,1.9,1.5.5.6.7,1.4.8,2.1,0,.7.1,2.1.1,4v3.2ZM18.8,5.1c0-.8,0-1.4-.1-1.7,0-.2-.3-.3-.6-.3s-.4,0-.5.3c-.1.2-.2.7-.2,1.7v8.6c0,1.1,0,1.7.1,2,0,.2.3.4.6.4s.5-.1.6-.4c0-.3.1-.9.1-2.1V5.1Z"/>
    <path class="st0" d="M25,.4h3.4c2.2,0,3.8,0,4.6.2.8.2,1.5.6,2,1.4s.7,1.9.7,3.5-.2,2.4-.5,2.8c-.3.5-1.1.7-2.1.8.9.2,1.6.5,1.9.9s.5.7.6,1.1c0,.3.1,1.3.1,2.7v4.8h-4.4v-6.1c0-.9,0-1.6-.2-1.8-.1-.2-.5-.3-1.3-.3v8.3h-4.7V.4h-.1ZM29.8,3.5v4.1c.5,0,.9,0,1.2-.2s.3-.6.3-1.5v-1.1c0-.6,0-.9-.3-1.2s-.6-.3-1.2-.3h0Z"/>
    <path class="st0" d="M41.8.4v18.4h-4.7V.4h4.7Z"/>
    <path class="st0" d="M10.8,23.7h-4.4v-1.4c0-.6,0-1.1-.2-1.3-.1-.2-.3-.2-.5-.2s-.5.1-.6.3c-.1.2-.2.6-.2,1.1s0,1.1.2,1.4.6.7,1.4,1.2c2.1,1.3,3.5,2.3,4,3.2s.8,2.1.8,3.9-.1,2.3-.4,2.8c-.3.6-.9,1.2-1.8,1.6s-1.9.6-3.1.6-2.4-.2-3.3-.7-1.5-1.1-1.8-1.9-.4-1.8-.4-3.2v-1.2h4.4v2.2c0,.7,0,1.2.2,1.4.1.2.3.3.6.3s.5-.1.7-.4.2-.6.2-1.2c0-1.1-.1-1.8-.4-2.1s-1.1-.8-2.2-1.7c-1.2-.7-2-1.4-2.3-1.7-.4-.3-.7-.8-.9-1.5-.2-.6-.4-1.5-.4-2.4,0-1.4.2-2.4.5-3.1.3-.6.9-1.2,1.8-1.6.8-.3,1.8-.5,2.9-.5s2.3.2,3.2.6,1.5.9,1.7,1.5c.3.6.4,1.7.4,3.1v.7h-.1Z"/>
    <path class="st0" d="M20.5,18.2l2.7,18.4h-4.8l-.2-3.3h-1.7l-.3,3.3h-5l2.4-18.4h7-.1ZM18,30c-.2-2.1-.5-4.6-.7-7.7-.5,3.5-.8,6.1-.9,7.7h1.7Z"/>
    <path class="st0" d="M28.4,18.2v14.7h2.9v3.7h-7.7v-18.4s4.7,0,4.7,0Z"/>
    <path class="st0" d="M32,18.2h3.4c2.2,0,3.8,0,4.6.2.8.2,1.5.6,2,1.4.5.7.7,1.9.7,3.5s-.2,2.4-.5,2.8c-.3.5-1.1.7-2.1.8.9.2,1.6.5,1.9.9s.5.7.6,1.1.1,1.3.1,2.7v4.8h-4.4v-6.1c0-.9,0-1.6-.2-1.8-.1-.2-.5-.3-1.3-.3v8.3h-4.7v-18.4h-.1ZM36.9,21.3v4.1c.5,0,.9,0,1.2-.2.2-.1.3-.6.3-1.5v-1.1c0-.6,0-.9-.3-1.2-.2-.2-.6-.3-1.2-.3h0Z"/>
    <path class="st0" d="M52.3,18.2l2.7,18.4h-4.8l-.2-3.3h-1.7l-.3,3.3h-5l2.4-18.4h7-.1ZM49.8,30c-.2-2.1-.5-4.6-.7-7.7-.5,3.5-.8,6.1-.9,7.7h1.7Z"/>
    <path class="st0" d="M66.1,18.2v18.4h-4.2l-2.5-8.3v8.3h-4v-18.4h4l2.6,8.3v-8.3h4.1Z"/>
    <path class="st0" d="M77.8,24.9h-4.7v-1.7c0-1.1,0-1.7-.1-2,0-.3-.3-.4-.6-.4s-.5.1-.6.3-.2.8-.2,1.8v8.8c0,.8,0,1.4.2,1.6s.3.4.6.4.6-.1.7-.4c.1-.3.2-.8.2-1.7v-2.2h-.9v-2.8h5.6v9.9h-3.1l-.4-1.4c-.3.5-.7.9-1.3,1.3s-1.1.4-1.8.4-1.6-.2-2.2-.6c-.7-.4-1.3-.8-1.6-1.5-.3-.5-.6-1.2-.6-1.8s-.1-1.6-.1-2.8v-5.5c0-1.8,0-3.1.3-3.8s.7-1.5,1.6-2.2c.9-.6,2.1-.9,3.5-.9s2.5.3,3.5.8,1.5,1.3,1.8,2c.3.8.4,1.9.4,3.5v.8h-.1Z"/>
  </g>
  <path class="st0" d="M84,0"/>
</svg>